<svg width="20" height="20" viewBox="0 0 20 20" fill="none" xmlns="http://www.w3.org/2000/svg">
<path fill-rule="evenodd" clip-rule="evenodd" d="M19.6404 17.3282C19.0231 19.2042 16.6044 20.1398 14.8764 19.9838C12.5164 19.7704 9.9484 18.5187 7.99906 17.14C5.13373 15.1133 2.44973 11.9784 0.885727 8.65173C-0.219606 6.30106 -0.467603 3.41093 1.1764 1.26827C1.7844 0.476266 2.44173 0.0532764 3.42973 0.00394311C4.8004 -0.0627236 4.9924 0.721412 5.46306 1.94275C5.81373 2.85608 6.28173 3.78774 6.54306 4.73441C7.03239 6.50108 5.32173 6.57492 5.10573 8.01892C4.97106 8.92958 6.07506 10.1508 6.57373 10.8002C7.55106 12.0722 8.72573 13.1693 10.0511 14.0039C10.8097 14.4826 12.0351 15.3452 12.9044 14.8692C14.2431 14.1358 14.1164 11.8786 15.9884 12.6426C16.9577 13.0373 17.8964 13.6068 18.8217 14.1055C20.2524 14.8748 20.1857 15.6722 19.6404 17.3282C20.0484 16.0908 19.2324 18.5655 19.6404 17.3282Z" fill="white"/>
</svg>
