<svg width="20.000000" height="21.000000" viewBox="0 0 20 21" fill="none" xmlns="http://www.w3.org/2000/svg" xmlns:xlink="http://www.w3.org/1999/xlink">
	<desc>
			Created with Pixso.
	</desc>
	<defs/>
	<path id="call-[#192]" d="M19.64 17.32C19.02 19.2 16.6 20.13 14.87 19.98C12.51 19.77 9.94 18.51 7.99 17.13C5.13 15.11 2.44 11.97 0.88 8.65C-0.22 6.3 -0.47 3.41 1.17 1.26C1.78 0.47 2.44 0.05 3.42 0C4.8 -0.07 4.99 0.72 5.46 1.94C5.81 2.85 6.28 3.78 6.54 4.73C7.03 6.5 5.32 6.57 5.1 8.01C4.97 8.92 6.07 10.15 6.57 10.8C7.55 12.07 8.72 13.16 10.05 14C10.8 14.48 12.03 15.34 12.9 14.86C14.24 14.13 14.11 11.87 15.98 12.64C16.95 13.03 17.89 13.6 18.82 14.1C20.25 14.87 20.18 15.67 19.64 17.32Z" fill="#36A8DD" fill-opacity="1.000000" fill-rule="evenodd"/>
</svg>
