<svg width="35" height="34" viewBox="0 0 35 34" fill="none" xmlns="http://www.w3.org/2000/svg">
<g clip-path="url(#clip0_58_27)">
<path fill-rule="evenodd" clip-rule="evenodd" d="M0.5 17C0.5 26.3888 8.11118 34 17.5 34C26.8888 34 34.5 26.3888 34.5 17C34.5 7.61118 26.8888 0 17.5 0C8.11118 0 0.5 7.61118 0.5 17ZM28.169 16.3494C28.1668 21.9217 23.6338 26.4558 18.0604 26.458H18.0562C16.3643 26.4575 14.7019 26.0329 13.2254 25.2276L7.86667 26.6333L9.30076 21.3951C8.41612 19.862 7.95067 18.1231 7.95138 16.3414C7.95365 10.7679 12.4884 6.23333 18.0602 6.23333C20.7644 6.2345 23.3025 7.28726 25.2111 9.19799C27.1196 11.1087 28.1701 13.6484 28.169 16.3494Z" fill="#36A8DD"/>
<path fill-rule="evenodd" clip-rule="evenodd" d="M10.2933 24.2323L13.4733 23.3981L13.7801 23.5802C15.0701 24.3457 16.5488 24.7507 18.0565 24.7513H18.0599C22.6908 24.7513 26.4599 20.9822 26.4618 16.3493C26.4626 14.1042 25.5896 11.9933 24.0032 10.4052C22.4169 8.81702 20.3074 7.94194 18.0632 7.94116C13.4287 7.94116 9.65956 11.71 9.65772 16.3425C9.65708 17.9301 10.1013 19.4762 10.9423 20.8138L11.1421 21.1317L10.2933 24.2323ZM22.8067 18.5263C22.9828 18.6114 23.1018 18.6689 23.1526 18.7537C23.2157 18.859 23.2157 19.3647 23.0053 19.9549C22.7948 20.5448 21.7857 21.0833 21.3004 21.1558C20.8653 21.2209 20.3146 21.248 19.7095 21.0557C19.3426 20.9393 18.8722 20.7839 18.2696 20.5236C15.9017 19.5012 14.3014 17.2062 13.999 16.7724C13.9778 16.742 13.963 16.7207 13.9547 16.7098L13.9527 16.707C13.819 16.5286 12.9233 15.3336 12.9233 14.0969C12.9233 12.9334 13.4949 12.3236 13.758 12.0428C13.776 12.0236 13.7925 12.0059 13.8074 11.9897C14.0389 11.7368 14.3126 11.6737 14.481 11.6737C14.6493 11.6737 14.8179 11.6752 14.965 11.6826C14.9832 11.6835 15.0021 11.6834 15.0216 11.6833C15.1688 11.6824 15.3523 11.6813 15.5333 12.1162C15.603 12.2835 15.7049 12.5316 15.8124 12.7932C16.0297 13.3224 16.2699 13.907 16.3121 13.9916C16.3753 14.118 16.4173 14.2655 16.3331 14.4342C16.3205 14.4595 16.3088 14.4833 16.2976 14.5061C16.2344 14.6352 16.1879 14.7302 16.0806 14.8555C16.0384 14.9048 15.9947 14.9579 15.9511 15.011C15.8643 15.1168 15.7774 15.2226 15.7017 15.298C15.5753 15.4239 15.4436 15.5606 15.5909 15.8135C15.7383 16.0664 16.2452 16.8934 16.9961 17.5632C17.8033 18.2832 18.5048 18.5875 18.8604 18.7418C18.9298 18.7719 18.986 18.7962 19.0273 18.8169C19.2798 18.9434 19.4272 18.9222 19.5745 18.7537C19.7219 18.5851 20.2059 18.0161 20.3743 17.7633C20.5426 17.5105 20.7111 17.5526 20.9426 17.6369C21.1742 17.7213 22.4159 18.3322 22.6685 18.4586C22.7178 18.4834 22.7639 18.5056 22.8067 18.5263Z" fill="#36A8DD"/>
</g>
<defs>
<clipPath id="clip0_58_27">
<rect width="34" height="34" fill="white" transform="translate(0.5)"/>
</clipPath>
</defs>
</svg>
