<svg width="34" height="34" viewBox="0 0 34 34" fill="none" xmlns="http://www.w3.org/2000/svg">
<g clip-path="url(#clip0_195_2390)">
<path fill-rule="evenodd" clip-rule="evenodd" d="M0 17C0 26.3888 7.61118 34 17 34C26.3888 34 34 26.3888 34 17C34 7.61118 26.3888 0 17 0C7.61118 0 0 7.61118 0 17ZM27.669 16.3494C27.6668 21.9217 23.1338 26.4558 17.5604 26.458H17.5562C15.8643 26.4575 14.2019 26.0329 12.7254 25.2276L7.36667 26.6333L8.80076 21.3951C7.91612 19.862 7.45067 18.1231 7.45138 16.3414C7.45365 10.7679 11.9884 6.23333 17.5602 6.23333C20.2644 6.2345 22.8025 7.28726 24.7111 9.19799C26.6196 11.1087 27.6701 13.6484 27.669 16.3494Z" fill="white"/>
<path fill-rule="evenodd" clip-rule="evenodd" d="M9.7933 24.232L12.9733 23.3978L13.2801 23.5799C14.5701 24.3454 16.0488 24.7505 17.5565 24.7511H17.5599C22.1908 24.7511 25.9599 20.9819 25.9618 16.349C25.9626 14.104 25.0896 11.9931 23.5032 10.4049C21.9169 8.81677 19.8074 7.9417 17.5632 7.94092C12.9287 7.94092 9.15956 11.7097 9.15772 16.3422C9.15708 17.9298 9.60127 19.4759 10.4423 20.8136L10.6421 21.1315L9.7933 24.232ZM22.3067 18.526C22.4828 18.6112 22.6018 18.6686 22.6526 18.7534C22.7157 18.8587 22.7157 19.3645 22.5053 19.9546C22.2948 20.5446 21.2857 21.0831 20.8004 21.1555C20.3653 21.2206 19.8146 21.2477 19.2095 21.0554C18.8426 20.9391 18.3722 20.7836 17.7696 20.5234C15.4017 19.5009 13.8014 17.2059 13.499 16.7721C13.4778 16.7417 13.463 16.7205 13.4547 16.7095L13.4527 16.7068C13.319 16.5284 12.4233 15.3334 12.4233 14.0966C12.4233 12.9332 12.9949 12.3233 13.258 12.0426C13.276 12.0234 13.2925 12.0057 13.3074 11.9895C13.5389 11.7366 13.8126 11.6734 13.981 11.6734C14.1493 11.6734 14.3179 11.675 14.465 11.6823C14.4832 11.6833 14.5021 11.6831 14.5216 11.683C14.6688 11.6821 14.8523 11.6811 15.0333 12.1159C15.103 12.2833 15.2049 12.5313 15.3124 12.7929C15.5297 13.3221 15.7699 13.9068 15.8121 13.9914C15.8753 14.1178 15.9173 14.2653 15.8331 14.4339C15.8205 14.4592 15.8088 14.4831 15.7976 14.5058C15.7344 14.635 15.6879 14.7299 15.5806 14.8552C15.5384 14.9045 15.4947 14.9577 15.4511 15.0107C15.3643 15.1165 15.2774 15.2224 15.2017 15.2977C15.0753 15.4237 14.9436 15.5604 15.0909 15.8133C15.2383 16.0661 15.7452 16.8932 16.4961 17.563C17.3033 18.2829 18.0048 18.5872 18.3604 18.7415C18.4298 18.7716 18.486 18.796 18.5273 18.8167C18.7798 18.9431 18.9272 18.922 19.0745 18.7534C19.2219 18.5849 19.7059 18.0159 19.8743 17.763C20.0426 17.5103 20.2111 17.5524 20.4426 17.6367C20.6742 17.721 21.9159 18.332 22.1685 18.4584C22.2178 18.4831 22.2639 18.5054 22.3067 18.526Z" fill="white"/>
</g>
<defs>
<clipPath id="clip0_195_2390">
<rect width="34" height="34" fill="white"/>
</clipPath>
</defs>
</svg>
