<svg width="80" height="80" viewBox="0 0 80 80" fill="none" xmlns="http://www.w3.org/2000/svg">
<path d="M54.729 60.4075L52.3356 46.2086L62.6743 36.1848C62.8591 36.0006 62.9893 35.7689 63.0507 35.5154C63.112 35.2618 63.1022 34.9962 63.0222 34.7479C62.9422 34.4996 62.7951 34.2782 62.5973 34.1082C62.3994 33.9382 62.1584 33.8261 61.9009 33.7844L47.6584 31.675L41.3218 18.7431C41.2065 18.5073 41.0274 18.3085 40.8048 18.1692C40.5823 18.0299 40.3252 17.9557 40.0626 17.955C39.8001 17.9542 39.5426 18.027 39.3193 18.1651C39.096 18.3031 38.9157 18.5009 38.799 18.7361L32.3908 31.6314L18.1356 33.662C17.8757 33.6988 17.6314 33.8076 17.4301 33.9761C17.2289 34.1446 17.0788 34.366 16.9969 34.6153C16.9149 34.8647 16.9044 35.1319 16.9665 35.3869C17.0286 35.642 17.1607 35.8745 17.3481 36.0583L27.632 46.1369L25.157 60.3231C25.1159 60.5809 25.1467 60.845 25.2461 61.0863C25.3455 61.3277 25.5097 61.5369 25.7204 61.6909C25.9311 61.8449 26.1803 61.9378 26.4404 61.9592C26.7006 61.9806 26.9616 61.9298 27.1947 61.8123L39.9592 55.1467L52.6858 61.8827C52.918 62.0011 53.1784 62.0532 53.4383 62.0332C53.6982 62.0131 53.9475 61.9217 54.1588 61.7691C54.3701 61.6164 54.5351 61.4083 54.6358 61.1678C54.7364 60.9273 54.7686 60.6652 54.729 60.4075ZM40.6201 52.3159C40.4187 52.2096 40.1945 52.1536 39.9667 52.1529C39.739 52.1522 39.5144 52.2067 39.3123 52.3117L28.4181 58L30.5303 45.8922C30.5691 45.6678 30.553 45.4373 30.4832 45.2206C30.4134 45.0038 30.292 44.8072 30.1295 44.6477L21.3531 36.0456L33.52 34.3117C33.7456 34.2795 33.96 34.1928 34.1447 34.0593C34.3294 33.9258 34.4789 33.7494 34.5803 33.5453L40.0506 22.54L45.4576 33.5762C45.5582 33.7808 45.7071 33.9578 45.8913 34.0921C46.0755 34.2263 46.2896 34.3138 46.5151 34.3469L58.6708 36.1497L49.8465 44.7039C49.6827 44.8624 49.56 45.0584 49.4889 45.275C49.4179 45.4916 49.4006 45.7223 49.4387 45.947L51.482 58.0647L40.6201 52.3159ZM40.014 13.5822C40.387 13.5822 40.7447 13.434 41.0084 13.1703C41.2721 12.9066 41.4203 12.5489 41.4203 12.1759V2.03125C41.4203 1.65829 41.2721 1.3006 41.0084 1.03688C40.7447 0.773158 40.387 0.625 40.014 0.625C39.6411 0.625 39.2834 0.773158 39.0197 1.03688C38.7559 1.3006 38.6078 1.65829 38.6078 2.03125V12.1759C38.6078 12.5489 38.7559 12.9066 39.0197 13.1703C39.2834 13.434 39.6411 13.5822 40.014 13.5822ZM32.7268 12.7483C32.8852 13.0784 33.1661 13.3337 33.5098 13.46C33.8535 13.5863 34.2329 13.5735 34.5673 13.4244C34.9017 13.2753 35.1648 13.0017 35.3007 12.6617C35.4365 12.3217 35.4343 11.9421 35.2947 11.6036L33.4848 7.54375C33.333 7.20305 33.0521 6.93661 32.7039 6.80303C32.3556 6.66945 31.9686 6.67969 31.6279 6.83148C31.2872 6.98328 31.0207 7.2642 30.8871 7.61245C30.7536 7.96069 30.7638 8.34774 30.9156 8.68844L32.7268 12.7483ZM45.4464 13.4598C45.7869 13.6115 46.1737 13.6217 46.5218 13.4883C46.8699 13.3549 47.1507 13.0887 47.3026 12.7483L49.1125 8.68984C49.2521 8.35138 49.2543 7.97178 49.1185 7.63176C48.9826 7.29173 48.7196 7.01809 48.3851 6.86901C48.0507 6.71993 47.6713 6.70716 47.3276 6.83343C46.9839 6.95969 46.703 7.21503 46.5447 7.54516L44.7348 11.6036C44.5832 11.9441 44.5729 12.3309 44.7064 12.679C44.8398 13.0271 45.106 13.3079 45.4464 13.4598ZM19.345 21.3194C19.6102 21.5755 19.9654 21.7173 20.3341 21.7141C20.7028 21.7109 21.0556 21.563 21.3163 21.3022C21.577 21.0415 21.7249 20.6888 21.7281 20.3201C21.7313 19.9514 21.5896 19.5962 21.3334 19.3309L14.1615 12.1562C13.8979 11.8924 13.5401 11.7441 13.1671 11.7439C12.7941 11.7438 12.4363 11.8919 12.1724 12.1555C11.9085 12.4192 11.7602 12.7769 11.7601 13.15C11.7599 13.523 11.908 13.8808 12.1717 14.1447L19.345 21.3194ZM11.4419 24.2936C11.6992 24.3625 15.9517 26.1133 16.0937 25.9769C16.419 25.9713 16.7324 25.8534 16.9807 25.6432C17.229 25.433 17.3971 25.1434 17.4563 24.8235C17.5156 24.5036 17.4624 24.173 17.3058 23.8878C17.1492 23.6026 16.8989 23.3803 16.5972 23.2586L12.4487 21.6681C12.1025 21.5434 11.7212 21.5593 11.3866 21.7125C11.052 21.8657 10.7908 22.144 10.659 22.4876C10.5272 22.8312 10.5354 23.2127 10.6817 23.5504C10.8281 23.888 11.101 24.1549 11.4419 24.2936ZM23.2726 16.5831C23.4063 16.9315 23.6729 17.2124 24.0138 17.3642C24.3547 17.516 24.7419 17.5261 25.0902 17.3924C25.4386 17.2587 25.7195 16.9921 25.8713 16.6512C26.0231 16.3104 26.0332 15.9232 25.8995 15.5748L24.309 11.4264C24.1734 11.0809 23.9067 10.8031 23.567 10.6534C23.2274 10.5038 22.8424 10.4945 22.4959 10.6276C22.1494 10.7606 21.8696 11.0252 21.7174 11.3638C21.5653 11.7023 21.5531 12.0872 21.6836 12.4347L23.2726 16.5831ZM13.5962 39.9986C13.5962 39.6256 13.4481 39.2679 13.1843 39.0042C12.9206 38.7405 12.5629 38.5923 12.19 38.5923H2.04529C1.67233 38.5923 1.31464 38.7405 1.05092 39.0042C0.787196 39.2679 0.639038 39.6256 0.639038 39.9986C0.639038 40.3716 0.787196 40.7292 1.05092 40.993C1.31464 41.2567 1.67233 41.4048 2.04529 41.4048H12.19C12.5629 41.4048 12.9206 41.2567 13.1843 40.993C13.4481 40.7292 13.5962 40.3716 13.5962 39.9986ZM13.4753 45.4309C13.4005 45.2618 13.293 45.1092 13.159 44.9818C13.025 44.8544 12.8672 44.7548 12.6945 44.6886C12.5219 44.6225 12.3378 44.5912 12.153 44.5964C11.9682 44.6017 11.7862 44.6435 11.6176 44.7194L7.55779 46.5292C7.38562 46.6021 7.22971 46.7086 7.09918 46.8424C6.96865 46.9763 6.86612 47.1348 6.79759 47.3088C6.72907 47.4827 6.69591 47.6686 6.70007 47.8555C6.70424 48.0424 6.74563 48.2266 6.82183 48.3974C6.89803 48.5681 7.00751 48.7219 7.14387 48.8498C7.28022 48.9777 7.44072 49.0772 7.61596 49.1423C7.79121 49.2075 7.97768 49.237 8.16448 49.2293C8.35129 49.2215 8.53466 49.1765 8.70388 49.097L12.7609 47.2886C13.1016 47.1369 13.3681 46.8562 13.5018 46.5081C13.6355 46.16 13.6254 45.773 13.4739 45.4323L13.4753 45.4309ZM7.55919 33.468C9.06289 34.2042 10.6092 34.8499 12.19 35.4016C12.5086 35.3948 12.8155 35.2807 13.0611 35.0775C13.3066 34.8744 13.4763 34.5942 13.5426 34.2825C13.6088 33.9709 13.5678 33.6459 13.4262 33.3604C13.2846 33.075 13.0506 32.8458 12.7623 32.71L8.70529 30.9016C8.36617 30.758 7.98428 30.7532 7.64166 30.8882C7.29905 31.0232 7.02304 31.2871 6.87295 31.6234C6.72286 31.9597 6.71067 32.3414 6.83898 32.6866C6.9673 33.0317 7.22589 33.3128 7.55919 33.4694V33.468ZM21.3334 58.6792C21.2028 58.5485 21.0477 58.4447 20.877 58.374C20.7063 58.3032 20.5233 58.2668 20.3385 58.2668C20.1537 58.2668 19.9707 58.3032 19.8 58.374C19.6293 58.4447 19.4742 58.5485 19.3436 58.6792L12.1717 65.8539C12.0342 65.9828 11.9241 66.138 11.8478 66.3103C11.7715 66.4826 11.7306 66.6685 11.7276 66.8569C11.7245 67.0453 11.7593 67.2324 11.83 67.4071C11.9007 67.5817 12.0057 67.7404 12.1389 67.8737C12.2721 68.007 12.4307 68.1122 12.6053 68.1829C12.78 68.2537 12.967 68.2887 13.1555 68.2858C13.3439 68.2829 13.5298 68.2421 13.7021 68.1659C13.8745 68.0897 14.0297 67.9797 14.1587 67.8423L21.3334 60.6677C21.597 60.4039 21.7451 60.0463 21.7451 59.6734C21.7451 59.3006 21.597 58.9429 21.3334 58.6792ZM25.0867 62.6069C24.7385 62.4737 24.3517 62.4842 24.0113 62.6361C23.6709 62.788 23.4047 63.0688 23.2712 63.4169L21.6822 67.5653C21.6101 67.7389 21.5736 67.9252 21.5747 68.1131C21.5759 68.3011 21.6147 68.4869 21.6889 68.6596C21.7631 68.8323 21.8711 68.9884 22.0067 69.1186C22.1422 69.2488 22.3025 69.3505 22.478 69.4178C22.6535 69.485 22.8407 69.5163 23.0286 69.51C23.2165 69.5036 23.4011 69.4596 23.5717 69.3807C23.7423 69.3017 23.8953 69.1894 24.0217 69.0502C24.1481 68.9111 24.2453 68.7481 24.3076 68.5708L25.8967 64.4223C26.0294 64.0743 26.0187 63.6879 25.8668 63.3478C25.715 63.0077 25.4344 62.7403 25.0867 62.6069ZM12.4473 58.3305L16.5958 56.7414C16.9441 56.6079 17.2251 56.3415 17.377 56.0007C17.5289 55.66 17.5393 55.2729 17.4058 54.9245C17.2722 54.5762 17.0058 54.2952 16.6651 54.1432C16.3243 53.9913 15.9372 53.981 15.5889 54.1145L11.4404 55.705C11.0996 55.8437 10.8267 56.1106 10.6803 56.4482C10.534 56.7859 10.5258 57.1674 10.6576 57.511C10.7894 57.8546 11.0506 58.1329 11.3852 58.2861C11.7198 58.4393 12.1011 58.4552 12.4473 58.3305ZM40.0126 66.4178C39.6397 66.4178 39.282 66.566 39.0183 66.8297C38.7545 67.0934 38.6064 67.4511 38.6064 67.8241V77.9688C38.6064 78.3417 38.7545 78.6994 39.0183 78.9631C39.282 79.2268 39.6397 79.375 40.0126 79.375C40.3856 79.375 40.7433 79.2268 41.007 78.9631C41.2707 78.6994 41.4189 78.3417 41.4189 77.9688V67.8241C41.4189 67.4511 41.2707 67.0934 41.007 66.8297C40.7433 66.566 40.3856 66.4178 40.0126 66.4178ZM47.3012 67.2517C47.1428 66.9216 46.862 66.6663 46.5183 66.54C46.1746 66.4137 45.7952 66.4265 45.4608 66.5756C45.1263 66.7247 44.8632 66.9983 44.7274 67.3383C44.5916 67.6783 44.5937 68.0579 44.7334 68.3964L46.5433 72.4548C46.615 72.6286 46.7208 72.7862 46.8545 72.9184C46.9881 73.0506 47.1469 73.1546 47.3215 73.2243C47.4961 73.2941 47.6829 73.3281 47.8708 73.3244C48.0588 73.3207 48.2441 73.2794 48.4157 73.2028C48.5874 73.1263 48.742 73.0161 48.8704 72.8788C48.9988 72.7415 49.0983 72.5798 49.1632 72.4034C49.228 72.2269 49.2568 72.0392 49.2478 71.8515C49.2389 71.6637 49.1924 71.4796 49.1111 71.3102L47.3012 67.2517ZM34.5803 66.5402C34.4117 66.4649 34.2299 66.4236 34.0454 66.4186C33.8608 66.4136 33.6771 66.4451 33.5047 66.5112C33.3323 66.5772 33.1746 66.6767 33.0406 66.8037C32.9067 66.9308 32.7991 67.083 32.724 67.2517L30.9142 71.3102C30.7745 71.6486 30.7724 72.0282 30.9082 72.3682C31.044 72.7083 31.3071 72.9819 31.6415 73.131C31.976 73.2801 32.3554 73.2928 32.699 73.1666C33.0427 73.0403 33.3236 72.785 33.482 72.4548L35.2919 68.3964C35.4435 68.0559 35.4537 67.6691 35.3203 67.321C35.1869 66.9729 34.9207 66.6921 34.5803 66.5402ZM60.6817 58.6806C60.4165 58.4245 60.0613 58.2827 59.6925 58.2859C59.3238 58.2891 58.9711 58.437 58.7104 58.6978C58.4497 58.9585 58.3018 59.3112 58.2986 59.6799C58.2954 60.0486 58.4371 60.4038 58.6933 60.6691L65.8665 67.8438C65.9963 67.9781 66.1514 68.0852 66.323 68.1589C66.4946 68.2326 66.6791 68.2714 66.8658 68.273C67.0525 68.2746 67.2377 68.2391 67.4105 68.1683C67.5834 68.0976 67.7404 67.9932 67.8724 67.8612C68.0044 67.7291 68.1089 67.5721 68.1796 67.3993C68.2503 67.2265 68.2859 67.0413 68.2842 66.8546C68.2826 66.6679 68.2438 66.4833 68.1701 66.3118C68.0964 66.1402 67.9893 65.985 67.855 65.8553L60.6817 58.6806ZM68.5862 55.7064L64.4378 54.1173C64.0934 53.9995 63.7167 54.0198 63.3869 54.174C63.0571 54.3282 62.8 54.6042 62.6696 54.9441C62.5392 55.284 62.5457 55.6611 62.6877 55.9963C62.8296 56.3315 63.0961 56.5986 63.4309 56.7414C63.6883 56.8103 67.9408 58.5611 68.0828 58.4261C68.4087 58.4213 68.7229 58.3037 68.9719 58.0934C69.2209 57.8831 69.3894 57.593 69.4488 57.2725C69.5081 56.952 69.4546 56.6208 69.2973 56.3353C69.1401 56.0498 68.8888 55.8276 68.5862 55.7064ZM56.754 63.4169C56.6184 63.0714 56.3517 62.7936 56.0121 62.6439C55.6724 62.4943 55.2874 62.485 54.9409 62.618C54.5944 62.7511 54.3146 63.0157 54.1624 63.3542C54.0103 63.6928 53.9981 64.0777 54.1286 64.4252L55.7176 68.5736C55.8513 68.9219 56.118 69.2029 56.4588 69.3547C56.7997 69.5064 57.1869 69.5166 57.5352 69.3829C57.8836 69.2492 58.1645 68.9826 58.3163 68.6417C58.4681 68.3008 58.4782 67.9137 58.3445 67.5653L56.754 63.4169ZM77.9828 38.5952H67.8367C67.4637 38.5952 67.1061 38.7433 66.8423 39.007C66.5786 39.2708 66.4304 39.6284 66.4304 40.0014C66.4304 40.3744 66.5786 40.7321 66.8423 40.9958C67.1061 41.2595 67.4637 41.4077 67.8367 41.4077H77.9828C78.3558 41.4077 78.7134 41.2595 78.9772 40.9958C79.2409 40.7321 79.389 40.3744 79.389 40.0014C79.389 39.6284 79.2409 39.2708 78.9772 39.007C78.7134 38.7433 78.3558 38.5952 77.9828 38.5952ZM66.5528 34.5691C66.705 34.9092 66.9859 35.1751 67.3338 35.3085C67.6818 35.4419 68.0685 35.4319 68.409 35.2806L72.4675 33.4708C72.6413 33.3991 72.7989 33.2933 72.931 33.1596C73.0632 33.0259 73.1672 32.8671 73.237 32.6925C73.3067 32.518 73.3407 32.3312 73.337 32.1432C73.3333 31.9553 73.292 31.77 73.2155 31.5983C73.1389 31.4266 73.0287 31.272 72.8914 31.1436C72.7541 31.0152 72.5924 30.9157 72.416 30.8509C72.2395 30.786 72.0519 30.7573 71.8641 30.7662C71.6763 30.7752 71.4923 30.8217 71.3228 30.903L67.2644 32.7114C66.9239 32.8633 66.6578 33.1442 66.5243 33.4922C66.3909 33.8403 66.4011 34.2271 66.5528 34.5677V34.5691ZM72.4675 46.532L68.4104 44.7208C68.2417 44.6455 68.0599 44.6042 67.8752 44.5993C67.6906 44.5943 67.5067 44.6258 67.3342 44.6918C67.1618 44.7579 67.004 44.8573 66.8699 44.9844C66.7358 45.1114 66.628 45.2636 66.5528 45.4323C66.4775 45.601 66.4362 45.7829 66.4313 45.9676C66.4263 46.1522 66.4578 46.336 66.5238 46.5085C66.5899 46.681 66.6893 46.8388 66.8164 46.9729C66.9434 47.107 67.0956 47.2147 67.2644 47.29C68.7681 48.0257 70.3144 48.6709 71.8951 49.2222C72.2132 49.2148 72.5195 49.1004 72.7644 48.8974C73.0094 48.6943 73.1786 48.4146 73.2449 48.1034C73.3111 47.7922 73.2703 47.4678 73.1292 47.1826C72.9882 46.8974 72.755 46.6682 72.4675 46.532ZM58.6947 21.3208C58.9584 21.5844 59.316 21.7325 59.6889 21.7325C60.0618 21.7325 60.4194 21.5844 60.6831 21.3208L67.8564 14.1461C68.1125 13.8809 68.2543 13.5257 68.2511 13.1569C68.2479 12.7882 68.1 12.4355 67.8393 12.1748C67.5785 11.9141 67.2258 11.7662 66.8571 11.763C66.4884 11.7598 66.1332 11.9015 65.868 12.1577L58.6947 19.3323C58.431 19.5961 58.2829 19.9537 58.2829 20.3266C58.2829 20.6994 58.431 21.0571 58.6947 21.3208ZM54.94 17.3931C55.2883 17.5264 55.6753 17.5159 56.016 17.364C56.3566 17.2121 56.6231 16.9313 56.7568 16.5831L58.3459 12.4347C58.418 12.2611 58.4545 12.0748 58.4534 11.8869C58.4522 11.6989 58.4134 11.5131 58.3392 11.3404C58.265 11.1677 58.157 11.0116 58.0214 10.8814C57.8859 10.7512 57.7256 10.6495 57.5501 10.5822C57.3745 10.515 57.1873 10.4837 56.9995 10.49C56.8116 10.4964 56.627 10.5404 56.4564 10.6193C56.2858 10.6983 56.1328 10.8106 56.0064 10.9498C55.88 11.0889 55.7828 11.2519 55.7204 11.4292L54.1314 15.5777C53.9986 15.9255 54.0091 16.3118 54.1607 16.6518C54.3123 16.9919 54.5925 17.2594 54.94 17.3931ZM67.5807 21.6695L63.4323 23.2586C63.1297 23.3798 62.8784 23.602 62.7212 23.8875C62.564 24.173 62.5104 24.5042 62.5698 24.8247C62.6291 25.1452 62.7976 25.4353 63.0466 25.6456C63.2957 25.8559 63.6098 25.9734 63.9358 25.9783C64.0651 26.1189 68.3415 24.3583 68.5876 24.295C68.9285 24.1563 69.2014 23.8894 69.3477 23.5518C69.4941 23.2141 69.5023 22.8326 69.3705 22.489C69.2387 22.1454 68.9775 21.8671 68.6429 21.7139C68.3083 21.5607 67.927 21.5448 67.5807 21.6695Z" fill="#36A8DD"/>
</svg>
