<svg width="90" height="89" viewBox="0 0 90 89" fill="none" xmlns="http://www.w3.org/2000/svg">
<path d="M43.1926 44.5839C42.8725 44.696 42.5582 44.8258 42.2528 44.9749C40.0237 46.1538 38.3037 48.1084 37.4179 50.4693C35.9631 53.8627 29.219 65.2529 3.50115 69.1509C3.08974 69.2082 2.69487 69.351 2.34193 69.57C1.98899 69.789 1.68578 70.0795 1.45181 70.4227C1.22201 70.7617 1.06597 71.1451 0.993788 71.5482C0.921607 71.9513 0.934894 72.3651 1.03279 72.7627C1.60572 74.8397 2.6299 76.7646 4.0323 78.4003C4.12525 78.567 4.25066 78.7145 4.39967 78.834C7.07972 81.7024 10.3974 83.8996 14.0843 85.2476C14.1241 85.2639 14.161 85.2831 14.2023 85.2963C15.9477 85.9839 17.7374 86.5549 19.5595 87.0049C22.7803 87.8016 26.0661 88.3091 29.3769 88.5245C29.4359 88.5363 29.4949 88.5452 29.5554 88.5496C29.5716 88.5496 29.5879 88.5393 29.6026 88.5393C30.4731 88.5894 31.3569 88.6249 32.2584 88.6249C37.9726 88.6249 44.2756 87.4726 49.3362 83.7014C50.5348 84.5189 51.9199 85.0216 53.3638 85.1632C54.8077 85.3047 56.264 85.0806 57.5985 84.5114C58.7196 85.7646 60.0826 86.7781 61.6054 87.491C63.1283 88.204 64.7795 88.6016 66.46 88.66C68.1404 88.7185 69.8153 88.4365 71.384 87.8311C72.9527 87.2256 74.3827 86.3092 75.5882 85.137C76.7977 85.7076 78.1131 86.0189 79.45 86.051C80.7869 86.0831 82.1158 85.8352 83.3512 85.3233C84.5866 84.8114 85.7013 84.0467 86.6238 83.0785C87.5462 82.1102 88.2559 80.9597 88.7073 79.7009C89.1587 78.4421 89.3419 77.1028 89.2451 75.7691C89.1482 74.4353 88.7735 73.1365 88.1449 71.9561C87.5164 70.7757 86.6479 69.7398 85.5953 68.915C84.5427 68.0901 83.3292 67.4946 82.0328 67.1665C81.4997 65.3122 80.4991 63.626 79.127 62.2696C77.755 60.9131 76.0574 59.9319 74.1972 59.4201C72.337 58.9082 70.3764 58.8828 68.5035 59.3464C66.6307 59.81 64.9083 60.747 63.5016 62.0675C61.8533 61.1511 59.941 60.8262 58.0825 61.1468C57.9626 58.792 57.703 56.4464 57.3049 54.1224C56.8336 51.3056 55.4059 48.7373 53.2623 46.8501L61.1307 6.14649C61.2639 5.48626 61.2646 4.80615 61.1329 4.14562C61.0012 3.48508 60.7397 2.85728 60.3634 2.29863C59.7975 1.44531 58.9902 0.779875 58.0446 0.387155C57.0989 -0.00556591 56.0578 -0.107777 55.0538 0.0935522C54.0499 0.294882 53.1286 0.79063 52.4075 1.51759C51.6864 2.24455 51.1981 3.16979 51.0049 4.17535L43.1926 44.5839ZM62.8289 65.1422C63.1303 65.3717 63.5085 65.4764 63.8851 65.4347C64.2617 65.3929 64.6078 65.2079 64.8516 64.918C65.8632 63.7185 67.1937 62.8299 68.6891 62.3551C70.1846 61.8803 71.784 61.8385 73.3022 62.2347C74.8204 62.631 76.1954 63.4489 77.2681 64.594C78.3408 65.7391 79.0674 67.1645 79.3638 68.7053C79.4223 69.0071 79.5736 69.2831 79.7966 69.4947C80.0196 69.7064 80.3031 69.843 80.6075 69.8857C81.59 70.024 82.529 70.3807 83.3555 70.9296C84.182 71.4786 84.8749 72.2058 85.3834 73.0578C85.8918 73.9097 86.2029 74.8648 86.2936 75.8529C86.3844 76.8409 86.2526 77.8366 85.9078 78.767C85.5631 79.6974 85.0142 80.5386 84.3016 81.229C83.589 81.9193 82.7307 82.4411 81.7899 82.7561C80.849 83.0711 79.8495 83.1712 78.8649 83.0491C77.8803 82.9269 76.9356 82.5857 76.1002 82.0504C75.7998 81.8584 75.4401 81.7815 75.0875 81.8342C74.7349 81.8868 74.4133 82.0653 74.1821 82.3367C73.2499 83.4408 72.0786 84.3184 70.7569 84.9029C69.4352 85.4873 67.9979 85.7634 66.5538 85.7101C65.1097 85.6567 63.6966 85.2755 62.4216 84.5952C61.1467 83.9148 60.0432 82.9533 59.1949 81.7834C58.9761 81.4821 58.6516 81.2747 58.2863 81.2027C57.921 81.1308 57.5419 81.1996 57.2253 81.3953C56.5314 81.8244 55.7538 82.1003 54.9447 82.2044C54.1355 82.3086 53.3135 82.2386 52.5336 81.9992C51.7537 81.7598 51.0339 81.3566 50.4225 80.8164C49.8111 80.2763 49.3222 79.6117 48.9885 78.8673C48.6548 78.1228 48.4841 77.3156 48.4877 76.4998C48.4913 75.684 48.6692 74.8784 49.0095 74.1369C49.3497 73.3954 49.8445 72.7352 50.4607 72.2005C51.0768 71.6658 51.8001 71.2689 52.5821 71.0365C52.8836 70.9462 53.1482 70.7619 53.3375 70.5106C53.5267 70.2592 53.6307 69.9539 53.6341 69.6393C53.6573 68.1332 54.2701 66.6962 55.3409 65.6369C56.4118 64.5776 57.8554 63.9805 59.3616 63.9737C60.6147 63.9696 61.8339 64.3805 62.8289 65.1422ZM50.7541 68.574C49.2099 69.2557 47.8958 70.3697 46.9706 71.7816C46.0454 73.1935 45.5486 74.8429 45.54 76.5309C45.5419 78.3643 46.128 80.1493 47.2131 81.627C43.6157 84.0137 39.4389 85.3812 35.1266 85.584C37.63 83.9304 39.8871 81.9311 41.8308 79.6455C42.0816 79.3448 42.2027 78.9567 42.1675 78.5667C42.1322 78.1768 41.9434 77.8167 41.6427 77.5659C41.342 77.3151 40.954 77.194 40.564 77.2293C40.174 77.2646 39.8139 77.4533 39.5631 77.754C36.6973 81.0413 33.1852 83.7032 29.2456 85.5737C26.2201 85.3509 23.219 84.8707 20.2751 84.1381C20.011 84.0717 19.7749 83.9906 19.5182 83.9286C27.4028 81.2316 36.4338 76.587 41.7969 68.6935C42.0098 68.3698 42.0869 67.9754 42.0114 67.5953C41.9359 67.2153 41.714 66.8802 41.3935 66.6624C41.073 66.4447 40.6798 66.3617 40.2987 66.4314C39.9175 66.5012 39.5791 66.718 39.3566 67.0352C33.5582 75.5749 22.8689 80.0527 14.7334 82.3278C12.4791 81.4353 10.3702 80.212 8.47623 78.6983C14.2348 77.8731 19.8282 76.1495 25.0525 73.5904C25.2251 73.4991 25.3779 73.3744 25.5019 73.2236C25.626 73.0728 25.7189 72.8988 25.7752 72.7118C25.8316 72.5249 25.8502 72.3285 25.8301 72.1343C25.81 71.94 25.7515 71.7517 25.6581 71.5802C25.5646 71.4087 25.438 71.2575 25.2857 71.1353C25.1333 71.0131 24.9583 70.9224 24.7706 70.8684C24.5829 70.8144 24.3864 70.7982 24.1924 70.8207C23.9984 70.8432 23.8108 70.904 23.6405 70.9996C18.2479 73.9416 10.5595 75.4376 5.95918 76.1149C5.01158 74.9205 4.31865 73.5447 3.92312 72.0722C26.5987 68.633 35.4969 59.3601 38.7664 54.1799C39.3241 54.717 39.932 55.1994 40.5841 55.6199C42.749 56.9737 45.2607 57.6693 47.8136 57.6221C47.9803 57.6221 48.1456 57.6221 48.3138 57.6132C50.4754 57.5769 52.6216 57.2402 54.6905 56.6129C54.9457 58.4483 55.1007 60.297 55.1553 62.1486C53.9731 62.8044 52.9599 63.7264 52.196 64.8417C51.4321 65.957 50.9384 67.2348 50.7541 68.574ZM54.1653 53.6591C52.2472 54.2965 50.2407 54.6358 48.2194 54.6639C46.1036 54.7877 44.0009 54.2577 42.1967 53.1457C41.4576 52.6801 40.7964 52.101 40.2374 51.4298C40.8623 49.8094 42.0389 48.4614 43.56 47.6232C44.3909 47.2394 45.2935 47.0352 46.2087 47.0237C47.1239 47.0123 48.0312 47.1939 48.8715 47.5568C50.1684 48.0911 51.3224 48.9211 52.2415 49.9806C53.1606 51.0401 53.8194 52.2998 54.1653 53.6591ZM53.9026 4.73453C54.0142 4.16267 54.3469 3.65791 54.8283 3.32976C55.3098 3.00161 55.9012 2.87656 56.4743 2.98174C57.0615 3.09535 57.5779 3.43912 57.9098 3.93633C58.2344 4.41731 58.351 5.00895 58.2359 5.57699L50.5859 45.118C50.3631 45.0132 50.1433 44.8937 49.9175 44.8052C48.7594 44.3607 47.5327 44.1211 46.2925 44.097L53.9026 4.73453Z" fill="#36A8DD"/>
<path d="M69.362 68.726C69.6549 68.3781 70.0404 68.1203 70.4739 67.9824C70.9073 67.8445 71.3709 67.8322 71.811 67.9469C72.2512 68.0616 72.6498 68.2987 72.9608 68.6305C73.2718 68.9624 73.4825 69.3756 73.5684 69.8223C73.6423 70.2067 73.866 70.546 74.1901 70.7656C74.5143 70.9852 74.9124 71.067 75.2968 70.993C75.6813 70.919 76.0206 70.6954 76.2401 70.3712C76.4597 70.0471 76.5415 69.649 76.4675 69.2646C76.2759 68.2707 75.8068 67.3514 75.1146 66.613C74.4224 65.8745 73.5353 65.3471 72.5559 65.0917C71.5765 64.8363 70.5448 64.8633 69.5802 65.1696C68.6155 65.4759 67.7572 66.0491 67.1046 66.8228C66.8522 67.1221 66.7291 67.5094 66.7623 67.8996C66.7955 68.2897 66.9823 68.6507 67.2816 68.9031C67.581 69.1555 67.9683 69.2786 68.3585 69.2454C68.7486 69.2122 69.1096 69.0254 69.362 68.726ZM77.459 50.9016C77.459 52.2712 78.0031 53.5846 78.9715 54.5531C79.9399 55.5215 81.2534 56.0655 82.6229 56.0655C83.9925 56.0655 85.306 55.5215 86.2744 54.5531C87.2428 53.5846 87.7869 52.2712 87.7869 50.9016C87.7869 49.532 87.2428 48.2186 86.2744 47.2502C85.306 46.2817 83.9925 45.7377 82.6229 45.7377C81.2534 45.7377 79.9399 46.2817 78.9715 47.2502C78.0031 48.2186 77.459 49.532 77.459 50.9016ZM84.8361 50.9016C84.8361 51.4886 84.6029 52.0515 84.1879 52.4665C83.7728 52.8816 83.2099 53.1147 82.6229 53.1147C82.036 53.1147 81.4731 52.8816 81.058 52.4665C80.643 52.0515 80.4098 51.4886 80.4098 50.9016C80.4098 50.3147 80.643 49.7517 81.058 49.3367C81.4731 48.9217 82.036 48.6885 82.6229 48.6885C83.2099 48.6885 83.7728 48.9217 84.1879 49.3367C84.6029 49.7517 84.8361 50.3147 84.8361 50.9016ZM73.0328 45.7377C74.2067 45.7377 75.3325 45.2713 76.1626 44.4413C76.9927 43.6112 77.459 42.4854 77.459 41.3114C77.459 40.1375 76.9927 39.0117 76.1626 38.1816C75.3325 37.3515 74.2067 36.8852 73.0328 36.8852C71.8589 36.8852 70.7331 37.3515 69.903 38.1816C69.0729 39.0117 68.6066 40.1375 68.6066 41.3114C68.6066 42.4854 69.0729 43.6112 69.903 44.4413C70.7331 45.2713 71.8589 45.7377 73.0328 45.7377ZM73.0328 39.836C73.4241 39.836 73.7994 39.9915 74.0761 40.2682C74.3528 40.5449 74.5082 40.9201 74.5082 41.3114C74.5082 41.7027 74.3528 42.078 74.0761 42.3547C73.7994 42.6314 73.4241 42.7869 73.0328 42.7869C72.6415 42.7869 72.2662 42.6314 71.9895 42.3547C71.7128 42.078 71.5574 41.7027 71.5574 41.3114C71.5574 40.9201 71.7128 40.5449 71.9895 40.2682C72.2662 39.9915 72.6415 39.836 73.0328 39.836ZM11.0656 33.9344C11.4569 33.9344 11.8322 33.779 12.1088 33.5023C12.3855 33.2256 12.541 32.8503 12.541 32.459V29.5082C12.541 29.1169 12.3855 28.7416 12.1088 28.4649C11.8322 28.1882 11.4569 28.0328 11.0656 28.0328C10.6743 28.0328 10.299 28.1882 10.0223 28.4649C9.74561 28.7416 9.59017 29.1169 9.59017 29.5082V32.459C9.59017 32.8503 9.74561 33.2256 10.0223 33.5023C10.299 33.779 10.6743 33.9344 11.0656 33.9344ZM12.541 41.3114V38.3606C12.541 37.9693 12.3855 37.594 12.1088 37.3174C11.8322 37.0407 11.4569 36.8852 11.0656 36.8852C10.6743 36.8852 10.299 37.0407 10.0223 37.3174C9.74561 37.594 9.59017 37.9693 9.59017 38.3606V41.3114C9.59017 41.7027 9.74561 42.078 10.0223 42.3547C10.299 42.6314 10.6743 42.7869 11.0656 42.7869C11.4569 42.7869 11.8322 42.6314 12.1088 42.3547C12.3855 42.078 12.541 41.7027 12.541 41.3114ZM5.16394 36.8852H8.11476C8.50606 36.8852 8.88134 36.7298 9.15803 36.4531C9.43472 36.1764 9.59017 35.8011 9.59017 35.4098C9.59017 35.0185 9.43472 34.6432 9.15803 34.3665C8.88134 34.0898 8.50606 33.9344 8.11476 33.9344H5.16394C4.77263 33.9344 4.39736 34.0898 4.12066 34.3665C3.84397 34.6432 3.68853 35.0185 3.68853 35.4098C3.68853 35.8011 3.84397 36.1764 4.12066 36.4531C4.39736 36.7298 4.77263 36.8852 5.16394 36.8852ZM14.0164 36.8852H16.9672C17.3585 36.8852 17.7338 36.7298 18.0105 36.4531C18.2872 36.1764 18.4426 35.8011 18.4426 35.4098C18.4426 35.0185 18.2872 34.6432 18.0105 34.3665C17.7338 34.0898 17.3585 33.9344 16.9672 33.9344H14.0164C13.6251 33.9344 13.2498 34.0898 12.9731 34.3665C12.6964 34.6432 12.541 35.0185 12.541 35.4098C12.541 35.8011 12.6964 36.1764 12.9731 36.4531C13.2498 36.7298 13.6251 36.8852 14.0164 36.8852ZM16.6618 52.8093L14.4487 55.0224C14.3078 55.1585 14.1954 55.3213 14.118 55.5013C14.0407 55.6813 14 55.8749 13.9983 56.0708C13.9966 56.2668 14.0339 56.461 14.1081 56.6424C14.1823 56.8237 14.2919 56.9884 14.4304 57.1269C14.5689 57.2655 14.7337 57.375 14.915 57.4492C15.0963 57.5234 15.2906 57.5607 15.4865 57.559C15.6824 57.5573 15.876 57.5166 16.056 57.4393C16.236 57.362 16.3988 57.2496 16.5349 57.1087L18.748 54.8955C19.0168 54.6173 19.1655 54.2446 19.1621 53.8577C19.1588 53.4709 19.0036 53.1008 18.7301 52.8273C18.4565 52.5537 18.0865 52.3986 17.6996 52.3952C17.3128 52.3918 16.9401 52.5406 16.6618 52.8093ZM25.3874 46.17C25.1107 45.8934 24.7355 45.738 24.3443 45.738C23.953 45.738 23.5778 45.8934 23.3011 46.17L21.088 48.3831C20.9471 48.5192 20.8347 48.682 20.7574 48.862C20.6801 49.042 20.6394 49.2356 20.6377 49.4315C20.636 49.6274 20.6733 49.8217 20.7475 50.003C20.8217 50.1843 20.9312 50.3491 21.0697 50.4876C21.2083 50.6261 21.373 50.7357 21.5543 50.8099C21.7357 50.8841 21.9299 50.9214 22.1258 50.9197C22.3217 50.918 22.5153 50.8773 22.6954 50.8C22.8754 50.7226 23.0382 50.6102 23.1743 50.4693L25.3874 48.2562C25.664 47.9795 25.8194 47.6043 25.8194 47.2131C25.8194 46.8219 25.664 46.4466 25.3874 46.17ZM23.1743 52.8093C22.896 52.5406 22.5233 52.3918 22.1365 52.3952C21.7496 52.3986 21.3796 52.5537 21.106 52.8273C20.8325 53.1008 20.6773 53.4709 20.6739 53.8577C20.6706 54.2446 20.8193 54.6173 21.088 54.8955L23.3011 57.1087C23.5794 57.3774 23.9521 57.5261 24.339 57.5228C24.7258 57.5194 25.0959 57.3642 25.3694 57.0907C25.643 56.8171 25.7981 56.4471 25.8015 56.0602C25.8048 55.6734 25.6561 55.3007 25.3874 55.0224L23.1743 52.8093ZM18.748 48.3831L16.5349 46.17C16.2567 45.9012 15.884 45.7525 15.4971 45.7559C15.1103 45.7592 14.7402 45.9144 14.4667 46.1879C14.1931 46.4615 14.0379 46.8315 14.0346 47.2184C14.0312 47.6052 14.1799 47.9779 14.4487 48.2562L16.6618 50.4693C16.9401 50.7381 17.3128 50.8868 17.6996 50.8834C18.0865 50.8801 18.4565 50.7249 18.7301 50.4513C19.0036 50.1778 19.1588 49.8077 19.1621 49.4209C19.1655 49.034 19.0168 48.6613 18.748 48.3831ZM18.1859 14.8603L43.2679 19.2865C43.649 19.3453 44.0381 19.2524 44.3517 19.0279C44.6652 18.8033 44.8784 18.4649 44.9455 18.0851C45.0127 17.7053 44.9284 17.3143 44.7108 16.9959C44.4932 16.6775 44.1595 16.4569 43.7813 16.3814L18.6993 11.9552C18.3182 11.8965 17.9291 11.9893 17.6156 12.2139C17.302 12.4384 17.0888 12.7768 17.0217 13.1566C16.9546 13.5364 17.0388 13.9274 17.2564 14.2458C17.474 14.5643 17.8077 14.7848 18.1859 14.8603ZM41.7925 26.6636C42.1736 26.7223 42.5627 26.6295 42.8762 26.4049C43.1898 26.1804 43.403 25.842 43.4701 25.4622C43.5372 25.0824 43.453 24.6914 43.2354 24.373C43.0178 24.0545 42.6841 23.834 42.3059 23.7585L26.3139 20.9346C25.9285 20.8665 25.5318 20.9543 25.2111 21.1787C24.8904 21.4031 24.672 21.7457 24.6039 22.1311C24.5358 22.5166 24.6237 22.9132 24.8481 23.2339C25.0725 23.5546 25.4151 23.773 25.8005 23.8411L41.7925 26.6636ZM19.7852 28.7896C19.7515 28.9805 19.7557 29.1761 19.7975 29.3654C19.8394 29.5546 19.9181 29.7337 20.0292 29.8925C20.1404 30.0513 20.2817 30.1867 20.4451 30.2909C20.6086 30.395 20.7909 30.466 20.9818 30.4996L40.317 33.9123C40.5079 33.9459 40.7035 33.9416 40.8927 33.8996C41.0819 33.8576 41.2609 33.7788 41.4196 33.6676C41.5784 33.5564 41.7136 33.4151 41.8177 33.2516C41.9218 33.0882 41.9927 32.9058 42.0263 32.715C42.0599 32.5241 42.0556 32.3285 42.0136 32.1393C41.9717 31.9502 41.8928 31.7711 41.7817 31.6124C41.6705 31.4537 41.5291 31.3184 41.3657 31.2143C41.2022 31.1102 41.0199 31.0393 40.829 31.0057L21.4938 27.5901C21.3028 27.5566 21.1071 27.5611 20.9179 27.6032C20.7287 27.6454 20.5496 27.7244 20.3909 27.8358C20.2322 27.9472 20.0971 28.0888 19.9932 28.2524C19.8892 28.4161 19.8186 28.5987 19.7852 28.7896Z" fill="#36A8DD"/>
</svg>
