<svg width="78" height="90" viewBox="0 0 78 90" fill="none" xmlns="http://www.w3.org/2000/svg">
<path d="M25.809 50.2004C23.8346 51.4519 21.5877 52.2093 19.2585 52.4084C18.9128 51.145 18.1624 50.0298 17.1223 49.2335C16.0823 48.4373 14.8098 48.0039 13.5 47.9999H6C4.4087 47.9999 2.88258 48.632 1.75736 49.7572C0.632141 50.8825 0 52.4086 0 53.9999L0 83.9999C0 85.5912 0.632141 87.1173 1.75736 88.2425C2.88258 89.3677 4.4087 89.9999 6 89.9999H13.5C14.8208 89.9947 16.103 89.5538 17.1477 88.7456C18.1924 87.9374 18.9412 86.807 19.278 85.5299C20.553 85.5974 21.7995 85.9124 22.953 86.4569C23.532 86.7314 24.0855 87.0569 24.6405 87.3779C25.4685 87.8834 26.331 88.3289 27.222 88.7129C29.544 89.5979 32.0145 90.0359 34.5 89.9999H61.5C62.5885 89.9993 63.6564 89.7027 64.5892 89.1417C65.5221 88.5807 66.2847 87.7765 66.7955 86.8152C67.3063 85.854 67.5459 84.7718 67.4887 83.6848C67.4316 82.5978 67.0798 81.5468 66.471 80.6444C67.3386 80.3458 68.1257 79.8514 68.7713 79.1995C69.4169 78.5476 69.9036 77.7557 70.1938 76.8853C70.4839 76.0149 70.5696 75.0893 70.4443 74.1805C70.3189 73.2716 69.9859 72.4038 69.471 71.6444C70.5508 71.2748 71.5017 70.603 72.2108 69.7088C72.9199 68.8146 73.3573 67.7355 73.471 66.6C73.5848 65.4644 73.3701 64.3201 72.8524 63.303C72.3348 62.2859 71.536 61.4388 70.551 60.8624C71.481 59.7899 71.9955 58.4189 72 56.9999C72 55.4086 71.3679 53.8825 70.2426 52.7572C69.1174 51.632 67.5913 50.9999 66 50.9999H47.052C49.398 46.5329 53.661 36.5474 49.512 29.2844C47.6865 26.0939 43.872 23.5979 39.8205 25.6619C35.5935 27.8099 36.54 32.0534 36.996 34.0904C38.1585 39.3164 34.395 44.7374 25.809 50.2004ZM13.5 86.9999H6C5.20435 86.9999 4.44129 86.6838 3.87868 86.1212C3.31607 85.5586 3 84.7955 3 83.9999V53.9999C3 53.2042 3.31607 52.4412 3.87868 51.8786C4.44129 51.316 5.20435 50.9999 6 50.9999H13.5C14.2956 50.9999 15.0587 51.316 15.6213 51.8786C16.1839 52.4412 16.5 53.2042 16.5 53.9999V83.9999C16.5 84.7955 16.1839 85.5586 15.6213 86.1212C15.0587 86.6838 14.2956 86.9999 13.5 86.9999ZM39.924 33.4379C39.246 30.4034 39.5505 29.1644 41.181 28.3379C43.827 26.9879 46.0275 29.2379 46.908 30.7754C51.3915 38.6264 43.2915 51.5669 43.209 51.6974C43.0654 51.9241 42.9853 52.1853 42.977 52.4535C42.9687 52.7218 43.0325 52.9874 43.1619 53.2226C43.2912 53.4578 43.4812 53.654 43.7122 53.7907C43.9432 53.9274 44.2066 53.9997 44.475 53.9999H66C66.7956 53.9999 67.5587 54.316 68.1213 54.8786C68.6839 55.4412 69 56.2042 69 56.9999C69 57.7955 68.6839 58.5586 68.1213 59.1212C67.5587 59.6838 66.7956 59.9999 66 59.9999H57C56.6022 59.9999 56.2206 60.1579 55.9393 60.4392C55.658 60.7205 55.5 61.1021 55.5 61.4999C55.5 61.8977 55.658 62.2792 55.9393 62.5605C56.2206 62.8419 56.6022 62.9999 57 62.9999H67.5C68.2956 62.9999 69.0587 63.316 69.6213 63.8786C70.1839 64.4412 70.5 65.2042 70.5 65.9999C70.5 66.7955 70.1839 67.5586 69.6213 68.1212C69.0587 68.6838 68.2956 68.9999 67.5 68.9999H57C56.6022 68.9999 56.2206 69.1579 55.9393 69.4392C55.658 69.7205 55.5 70.1021 55.5 70.4999C55.5 70.8977 55.658 71.2792 55.9393 71.5605C56.2206 71.8419 56.6022 71.9999 57 71.9999H64.5C65.2956 71.9999 66.0587 72.316 66.6213 72.8786C67.1839 73.4412 67.5 74.2042 67.5 74.9999C67.5 75.7955 67.1839 76.5586 66.6213 77.1212C66.0587 77.6838 65.2956 77.9999 64.5 77.9999H57C56.6022 77.9999 56.2206 78.1579 55.9393 78.4392C55.658 78.7205 55.5 79.1021 55.5 79.4999C55.5 79.8977 55.658 80.2792 55.9393 80.5605C56.2206 80.8419 56.6022 80.9999 57 80.9999H61.5C62.2957 80.9999 63.0587 81.316 63.6213 81.8786C64.1839 82.4412 64.5 83.2042 64.5 83.9999C64.5 84.7955 64.1839 85.5586 63.6213 86.1212C63.0587 86.6838 62.2957 86.9999 61.5 86.9999H34.5C32.4 87.0359 30.315 86.6744 28.35 85.9319C27.5898 85.6002 26.8536 85.2163 26.1465 84.7829C25.5272 84.4129 24.8932 84.0681 24.246 83.7494C22.7557 83.0484 21.1444 82.641 19.5 82.5494V55.4264C22.3183 55.1767 25.0347 54.2505 27.4185 52.7264C37.1835 46.5194 41.391 40.0289 39.924 33.4379ZM57.015 1.45638V1.49988C57.015 2.05188 56.8785 14.9999 45.0015 14.9999C44.6037 14.9999 44.2221 15.1579 43.9408 15.4392C43.6595 15.7205 43.5015 16.1021 43.5015 16.4999C43.5015 16.8977 43.6595 17.2792 43.9408 17.5605C44.2221 17.8418 44.6037 17.9999 45.0015 17.9999C56.832 17.9999 57.0135 30.9509 57.015 31.4999C57.0096 31.8977 57.1625 32.2814 57.44 32.5665C57.7175 32.8516 58.0969 33.0148 58.4947 33.0201C58.8926 33.0255 59.2762 32.8726 59.5613 32.5951C59.8464 32.3176 60.0096 31.9382 60.015 31.5404V31.4999C60.015 30.9479 60.1515 17.9999 72.03 17.9999C72.4278 17.9999 72.8094 17.8418 73.0907 17.5605C73.372 17.2792 73.53 16.8977 73.53 16.4999C73.53 16.1021 73.372 15.7205 73.0907 15.4392C72.8094 15.1579 72.4278 14.9999 72.03 14.9999C60.198 14.9999 60.018 2.04888 60.015 1.49988C60.0204 1.10205 59.8675 0.71839 59.59 0.433288C59.3125 0.148186 58.9331 -0.0150003 58.5352 -0.020371C58.1374 -0.0257416 57.7538 0.127143 57.4687 0.40465C57.1836 0.682157 57.0204 1.06155 57.015 1.45938V1.45638ZM65.19 16.4999C62.1184 18.1202 59.7442 20.8065 58.5135 24.0539C57.2835 20.806 54.9091 18.1195 51.837 16.4999C54.9091 14.8802 57.2835 12.1937 58.5135 8.94588C59.7442 12.1933 62.1184 14.8796 65.19 16.4999Z" fill="#36A8DD"/>
<path d="M19.5 19.4999V19.4909C19.4988 19.0931 19.3396 18.712 19.0575 18.4315C18.7753 18.1511 18.3933 17.9942 17.9955 17.9954C17.5977 17.9966 17.2166 18.1557 16.9362 18.4379C16.6557 18.72 16.4988 19.1021 16.5 19.4999C16.5 19.8674 16.374 28.4999 9 28.4999C8.60218 28.4999 8.22064 28.6579 7.93934 28.9392C7.65804 29.2205 7.5 29.6021 7.5 29.9999C7.5 30.3977 7.65804 30.7792 7.93934 31.0605C8.22064 31.3418 8.60218 31.4999 9 31.4999C16.374 31.4999 16.5 40.1354 16.5 40.4999V40.5089C16.5012 40.9067 16.6604 41.2878 16.9425 41.5682C17.2247 41.8487 17.6067 42.0056 18.0045 42.0044C18.4023 42.0032 18.7834 41.844 19.0638 41.5619C19.3443 41.2797 19.5012 40.8977 19.5 40.4999C19.5 40.1324 19.626 31.4999 27 31.4999C27.3978 31.4999 27.7794 31.3418 28.0607 31.0605C28.342 30.7792 28.5 30.3977 28.5 29.9999C28.5 29.6021 28.342 29.2205 28.0607 28.9392C27.7794 28.6579 27.3978 28.4999 27 28.4999C19.626 28.4999 19.5 19.8644 19.5 19.4999ZM21.516 29.9999C19.9971 31.013 18.7819 32.4195 18 34.0694C17.2181 32.4195 16.0029 31.013 14.484 29.9999C16.0032 28.9871 17.2185 27.5805 18 25.9304C18.7815 27.5805 19.9968 28.9871 21.516 29.9999ZM70.5 31.4999C70.1022 31.4999 69.7206 31.6579 69.4393 31.9392C69.158 32.2205 69 32.6021 69 32.9999V35.9999C69 36.3977 69.158 36.7792 69.4393 37.0605C69.7206 37.3418 70.1022 37.4999 70.5 37.4999C70.8978 37.4999 71.2794 37.3418 71.5607 37.0605C71.842 36.7792 72 36.3977 72 35.9999V32.9999C72 32.6021 71.842 32.2205 71.5607 31.9392C71.2794 31.6579 70.8978 31.4999 70.5 31.4999ZM70.5 46.4999C70.8978 46.4999 71.2794 46.3418 71.5607 46.0605C71.842 45.7792 72 45.3977 72 44.9999V41.9999C72 41.6021 71.842 41.2205 71.5607 40.9392C71.2794 40.6579 70.8978 40.4999 70.5 40.4999C70.1022 40.4999 69.7206 40.6579 69.4393 40.9392C69.158 41.2205 69 41.6021 69 41.9999V44.9999C69 45.3977 69.158 45.7792 69.4393 46.0605C69.7206 46.3418 70.1022 46.4999 70.5 46.4999ZM73.5 40.4999H76.5C76.8978 40.4999 77.2794 40.3418 77.5607 40.0605C77.842 39.7792 78 39.3977 78 38.9999C78 38.6021 77.842 38.2205 77.5607 37.9392C77.2794 37.6579 76.8978 37.4999 76.5 37.4999H73.5C73.1022 37.4999 72.7206 37.6579 72.4393 37.9392C72.158 38.2205 72 38.6021 72 38.9999C72 39.3977 72.158 39.7792 72.4393 40.0605C72.7206 40.3418 73.1022 40.4999 73.5 40.4999ZM67.5 40.4999C67.8978 40.4999 68.2794 40.3418 68.5607 40.0605C68.842 39.7792 69 39.3977 69 38.9999C69 38.6021 68.842 38.2205 68.5607 37.9392C68.2794 37.6579 67.8978 37.4999 67.5 37.4999H64.5C64.1022 37.4999 63.7206 37.6579 63.4393 37.9392C63.158 38.2205 63 38.6021 63 38.9999C63 39.3977 63.158 39.7792 63.4393 40.0605C63.7206 40.3418 64.1022 40.4999 64.5 40.4999H67.5ZM32.6895 13.8104L34.9395 16.0604C35.2224 16.3336 35.6013 16.4848 35.9946 16.4814C36.3879 16.478 36.7641 16.3202 37.0422 16.0421C37.3203 15.764 37.4781 15.3878 37.4815 14.9945C37.4849 14.6012 37.3337 14.2223 37.0605 13.9394L34.8105 11.6894C34.6721 11.5461 34.5066 11.4318 34.3236 11.3532C34.1406 11.2746 33.9438 11.2332 33.7446 11.2315C33.5454 11.2298 33.3479 11.2677 33.1636 11.3431C32.9792 11.4186 32.8117 11.5299 32.6709 11.6708C32.5301 11.8116 32.4187 11.9791 32.3433 12.1634C32.2678 12.3478 32.2299 12.5453 32.2316 12.7445C32.2334 12.9436 32.2747 13.1405 32.3533 13.3235C32.432 13.5065 32.5462 13.672 32.6895 13.8104ZM28.1895 9.31038C28.4724 9.58361 28.8513 9.73481 29.2446 9.73139C29.6379 9.72797 30.0141 9.57022 30.2922 9.29211C30.5703 9.01399 30.7281 8.63777 30.7315 8.24448C30.7349 7.85118 30.5837 7.47228 30.3105 7.18938L28.0605 4.93938C27.7776 4.66614 27.3987 4.51495 27.0054 4.51837C26.6121 4.52178 26.2359 4.67954 25.9578 4.95765C25.6797 5.23576 25.5219 5.61198 25.5185 6.00528C25.5151 6.39857 25.6663 6.77747 25.9395 7.06038L28.1895 9.31038ZM25.9395 16.0604C26.2208 16.3416 26.6023 16.4996 27 16.4996C27.3977 16.4996 27.7792 16.3416 28.0605 16.0604L30.3105 13.8104C30.4538 13.672 30.568 13.5065 30.6467 13.3235C30.7253 13.1405 30.7666 12.9436 30.7684 12.7445C30.7701 12.5453 30.7322 12.3478 30.6567 12.1634C30.5813 11.9791 30.4699 11.8116 30.3291 11.6708C30.1883 11.5299 30.0208 11.4186 29.8364 11.3431C29.6521 11.2677 29.4546 11.2298 29.2554 11.2315C29.0562 11.2332 28.8594 11.2746 28.6764 11.3532C28.4934 11.4318 28.3279 11.5461 28.1895 11.6894L25.9395 13.9394C25.6583 14.2207 25.5003 14.6021 25.5003 14.9999C25.5003 15.3976 25.6583 15.7791 25.9395 16.0604ZM33.75 9.74988C34.1478 9.74979 34.5293 9.5917 34.8105 9.31038L37.0605 7.06038C37.2038 6.92201 37.318 6.75649 37.3967 6.57348C37.4753 6.39048 37.5166 6.19365 37.5184 5.99448C37.5201 5.79531 37.4822 5.59779 37.4067 5.41345C37.3313 5.2291 37.2199 5.06162 37.0791 4.92079C36.9383 4.77995 36.7708 4.66857 36.5864 4.59315C36.4021 4.51772 36.2046 4.47977 36.0054 4.4815C35.8062 4.48323 35.6094 4.52461 35.4264 4.60323C35.2434 4.68184 35.0779 4.79611 34.9395 4.93938L32.6895 7.18938C32.4798 7.39916 32.337 7.6664 32.2791 7.95733C32.2213 8.24826 32.251 8.54981 32.3645 8.82386C32.478 9.09791 32.6702 9.33215 32.9168 9.49698C33.1634 9.66181 33.4534 9.74981 33.75 9.74988Z" fill="#36A8DD"/>
</svg>
