<svg width="86" height="74" viewBox="0 0 86 74" fill="none" xmlns="http://www.w3.org/2000/svg">
<path d="M53.1947 65.0107C66.8404 65.0107 77.942 53.9091 77.942 40.2634C77.942 26.6176 66.8404 15.5159 53.1947 15.5159C39.5489 15.5159 28.4472 26.6174 28.4472 40.2634C28.4472 53.9093 39.5489 65.0107 53.1947 65.0107ZM34.7687 38.9374H31.1395C31.4427 33.8417 33.4802 29.2058 36.6693 25.6127L39.2281 28.1716C39.4869 28.4305 39.8263 28.5599 40.1655 28.5599C40.5047 28.5599 40.8441 28.4305 41.1029 28.1716C41.3515 27.9229 41.4911 27.5857 41.4911 27.2342C41.4911 26.8826 41.3515 26.5454 41.1029 26.2968L38.544 23.7379C42.1371 20.5489 46.773 18.5113 51.8688 18.2082V21.8373C51.8688 22.5695 52.4622 23.1631 53.1945 23.1631C53.9268 23.1631 54.5203 22.5695 54.5203 21.8373V18.2082C59.616 18.5113 64.2519 20.5489 67.8448 23.7379L65.286 26.2968C65.1006 26.4822 64.9743 26.7184 64.9232 26.9756C64.872 27.2328 64.8983 27.4993 64.9987 27.7416C65.099 27.9838 65.2689 28.1909 65.487 28.3365C65.705 28.4822 65.9613 28.5599 66.2235 28.5599C66.3977 28.5601 66.5702 28.5259 66.7311 28.4593C66.892 28.3926 67.0381 28.2949 67.1611 28.1716L69.7198 25.6127C72.9086 29.2058 74.9464 33.8415 75.2493 38.9373H71.6202C70.8878 38.9373 70.2944 39.5308 70.2944 40.263C70.2944 40.9952 70.8878 41.5887 71.6202 41.5887H75.2493C74.9462 46.6845 72.9086 51.3204 69.7196 54.9133L67.1609 52.3546C66.9119 52.1078 66.5753 51.9696 66.2247 51.9704C65.8741 51.9711 65.5381 52.1107 65.2901 52.3586C65.0422 52.6065 64.9026 52.9425 64.9018 53.2931C64.901 53.6437 65.0391 53.9804 65.286 54.2294L67.8448 56.7882C64.2517 59.9773 59.616 62.0148 54.5203 62.318V58.6888C54.5203 57.9567 53.9268 57.3631 53.1945 57.3631C52.4622 57.3631 51.8688 57.9567 51.8688 58.6888V62.318C46.7728 62.0148 42.1371 59.9773 38.544 56.7882L41.1029 54.2296C41.3515 53.9809 41.4911 53.6438 41.4911 53.2922C41.4911 52.9406 41.3515 52.6034 41.1029 52.3548C40.9798 52.2317 40.8337 52.134 40.6728 52.0673C40.512 52.0007 40.3396 51.9664 40.1655 51.9664C39.9914 51.9664 39.819 52.0007 39.6582 52.0673C39.4973 52.134 39.3512 52.2317 39.2281 52.3548L36.6693 54.9135C33.4802 51.3204 31.4427 46.6847 31.1395 41.5887H34.7687C35.1176 41.5847 35.4509 41.4433 35.6962 41.1951C35.9415 40.9469 36.0791 40.612 36.0791 40.2631C36.0791 39.9141 35.9415 39.5792 35.6962 39.3311C35.4509 39.0829 35.1176 38.9415 34.7687 38.9374Z" fill="#36A8DD"/>
<path d="M69.2695 65.7797C64.4643 68.8135 58.9058 70.4169 53.1947 70.4169C36.5678 70.4169 23.0408 56.89 23.0408 40.2631C23.0408 33.5317 25.2097 27.1649 29.3128 21.851C29.5277 21.5727 29.6232 21.2204 29.5784 20.8717C29.5335 20.523 29.3519 20.2063 29.0736 19.9915C28.7953 19.7766 28.4431 19.6811 28.0943 19.7259C27.7456 19.7708 27.429 19.9523 27.2141 20.2306C22.7492 26.0128 20.3893 32.9399 20.3893 40.2631C20.3893 58.352 35.1058 73.0684 53.1947 73.0684C59.4076 73.0684 65.4558 71.3232 70.6851 68.0216C70.8337 67.9293 70.9626 67.8085 71.0644 67.6662C71.1661 67.5239 71.2387 67.3628 71.278 67.1923C71.3172 67.0218 71.3223 66.8452 71.2929 66.6727C71.2635 66.5003 71.2004 66.3353 71.1069 66.1873C71.0135 66.0394 70.8918 65.9114 70.7487 65.8108C70.6055 65.7101 70.4439 65.6388 70.2731 65.6009C70.1023 65.563 69.9257 65.5593 69.7535 65.59C69.5812 65.6206 69.4167 65.6851 69.2695 65.7797ZM61.1901 8.44498V3.41954C61.1901 2.04749 60.0738 0.931396 58.702 0.931396H47.687C46.315 0.931396 45.1989 2.04749 45.1989 3.41954V8.44356C39.9268 9.76435 35.0356 12.3847 30.9645 16.1378C30.7122 16.3777 30.5644 16.7071 30.5529 17.0551C30.5414 17.403 30.6672 17.7415 30.9032 17.9974C31.1391 18.2534 31.4663 18.4063 31.814 18.4231C32.1617 18.4399 32.5021 18.3193 32.7617 18.0873C38.3423 12.9426 45.5989 10.1092 53.1945 10.1092C69.8214 10.1092 83.3483 23.6362 83.3483 40.2631C83.3483 48.7975 79.7075 56.9693 73.3593 62.6827C73.2299 62.7992 73.1247 62.94 73.0498 63.0971C72.9748 63.2543 72.9315 63.4246 72.9223 63.5985C72.9132 63.7723 72.9384 63.9463 72.9965 64.1104C73.0546 64.2745 73.1444 64.4256 73.2609 64.555C73.3773 64.6844 73.5182 64.7896 73.6753 64.8646C73.8324 64.9396 74.0028 64.9829 74.1766 64.992C74.3505 65.0012 74.5244 64.976 74.6886 64.9179C74.8527 64.8598 75.0038 64.77 75.1332 64.6535C82.039 58.4379 85.9998 49.5478 85.9998 40.2629C86 24.9313 75.4271 12.0241 61.1901 8.44498ZM47.8505 7.89276V3.58287H58.5388V7.89542C56.7724 7.60429 54.9851 7.45791 53.1948 7.45774C51.3906 7.45774 49.6042 7.60481 47.8505 7.89276Z" fill="#36A8DD"/>
<path d="M53.1947 41.1916C53.4305 41.1917 53.6621 41.1287 53.8655 41.0093C54.0689 40.8899 54.2367 40.7183 54.3516 40.5123L58.9249 35.939C59.048 35.8159 59.1456 35.6698 59.2123 35.5089C59.2789 35.348 59.3132 35.1756 59.3132 35.0015C59.3132 34.8274 59.2789 34.655 59.2122 34.4941C59.1456 34.3333 59.0479 34.1871 58.9248 34.064C58.8017 33.9409 58.6555 33.8432 58.4946 33.7766C58.3338 33.71 58.1614 33.6757 57.9873 33.6757C57.8131 33.6757 57.6407 33.71 57.4799 33.7767C57.319 33.8433 57.1729 33.941 57.0498 34.0641L54.5202 36.5934V30.1373C54.5202 29.4051 53.9268 28.8115 53.1945 28.8115C52.4622 28.8115 51.8688 29.4051 51.8688 30.1373V39.8655C51.8687 40.0397 51.903 40.2121 51.9696 40.373C52.0363 40.5339 52.1339 40.6801 52.257 40.8032C52.3802 40.9264 52.5264 41.024 52.6872 41.0907C52.8481 41.1573 53.0205 41.1916 53.1947 41.1916ZM15.5635 40.5623C15.5635 40.2107 15.4238 39.8735 15.1752 39.6249C14.9266 39.3763 14.5894 39.2366 14.2377 39.2366H1.32574C0.974131 39.2366 0.636924 39.3763 0.3883 39.6249C0.139676 39.8735 0 40.2107 0 40.5623C0 40.9139 0.139676 41.2512 0.3883 41.4998C0.636924 41.7484 0.974131 41.8881 1.32574 41.8881H14.2377C14.5894 41.8881 14.9266 41.7484 15.1752 41.4998C15.4238 41.2512 15.5635 40.9139 15.5635 40.5623ZM6.61349 34.1673H16.0056C16.3572 34.1673 16.6944 34.0277 16.943 33.779C17.1916 33.5304 17.3313 33.1932 17.3313 32.8416C17.3313 32.49 17.1916 32.1528 16.943 31.9042C16.6944 31.6555 16.3572 31.5158 16.0056 31.5158H6.61349C6.26189 31.5158 5.92468 31.6555 5.67605 31.9042C5.42743 32.1528 5.28775 32.49 5.28775 32.8416C5.28775 33.1932 5.42743 33.5304 5.67605 33.779C5.92468 34.0277 6.26189 34.1673 6.61349 34.1673ZM17.7731 23.7949H10.7901C10.4385 23.7949 10.1013 23.9346 9.85266 24.1832C9.60404 24.4318 9.46436 24.7691 9.46436 25.1207C9.46436 25.4723 9.60404 25.8095 9.85266 26.0581C10.1013 26.3067 10.4385 26.4464 10.7901 26.4464H17.7731C18.1247 26.4464 18.4619 26.3067 18.7105 26.0581C18.9591 25.8095 19.0988 25.4723 19.0988 25.1207C19.0988 24.7691 18.9591 24.4318 18.7105 24.1832C18.4619 23.9346 18.1247 23.7949 17.7731 23.7949ZM17.3311 47.6847C17.3311 47.3331 17.1915 46.9959 16.9428 46.7473C16.6942 46.4987 16.357 46.359 16.0054 46.359H6.61349C6.26189 46.359 5.92468 46.4987 5.67605 46.7473C5.42743 46.9959 5.28775 47.3331 5.28775 47.6847C5.28775 48.0363 5.42743 48.3736 5.67605 48.6222C5.92468 48.8708 6.26189 49.0105 6.61349 49.0105H16.0056C16.3572 49.0104 16.6943 48.8707 16.9429 48.6221C17.1915 48.3735 17.3311 48.0363 17.3311 47.6847ZM17.7731 54.0799H10.7901C10.4385 54.0799 10.1013 54.2196 9.85266 54.4682C9.60404 54.7169 9.46436 55.0541 9.46436 55.4057C9.46436 55.7573 9.60404 56.0945 9.85266 56.3431C10.1013 56.5917 10.4385 56.7314 10.7901 56.7314H17.7731C18.1247 56.7314 18.4619 56.5917 18.7105 56.3431C18.9591 56.0945 19.0988 55.7573 19.0988 55.4057C19.0988 55.0541 18.9591 54.7169 18.7105 54.4682C18.4619 54.2196 18.1247 54.0799 17.7731 54.0799Z" fill="#36A8DD"/>
</svg>
