<svg width="89" height="72" viewBox="0 0 89 72" fill="none" xmlns="http://www.w3.org/2000/svg">
<path d="M35.7994 23.6065C35.9024 23.4422 35.972 23.2592 36.0042 23.0681C36.0364 22.8769 36.0307 22.6812 35.9872 22.4922C35.9438 22.3033 35.8635 22.1247 35.7511 21.9668C35.6386 21.8089 35.4961 21.6747 35.3317 21.5719C33.4163 20.3792 31.2039 19.7498 28.9476 19.7557C26.6736 19.7649 24.4479 20.4123 22.5238 21.6241C20.5996 22.836 19.0542 24.5636 18.0635 26.6104C17.9167 26.9593 17.9096 27.3512 18.0436 27.7052C18.1777 28.0592 18.4427 28.3481 18.7838 28.5122C19.1248 28.6763 19.5159 28.703 19.8762 28.5869C20.2364 28.4707 20.5382 28.2205 20.7192 27.8881C21.4678 26.3405 22.6361 25.0342 24.0908 24.1181C25.5456 23.202 27.2284 22.7129 28.9476 22.7065C30.6499 22.7009 32.3194 23.1749 33.7648 24.0742C33.9291 24.1772 34.112 24.2468 34.3032 24.279C34.4944 24.3112 34.6901 24.3055 34.879 24.262C35.068 24.2186 35.2465 24.1383 35.4045 24.0258C35.5624 23.9134 35.6966 23.7709 35.7994 23.6065Z" fill="#36A8DD"/>
<path d="M1.97914e-05 49.3525C0.00329435 52.3283 0.781556 55.252 2.25817 57.8356C3.73479 60.4192 5.85884 62.5737 8.42119 64.0869C10.9835 65.6002 13.8958 66.4199 16.8713 66.4656C19.8468 66.5112 22.7828 65.781 25.3903 64.3471C33.3944 72.7318 46.474 73.6185 55.5389 66.3935C58.7329 68.4285 62.4639 69.4588 66.2496 69.3512C70.0353 69.2437 73.7017 68.0032 76.7751 65.7901C79.8484 63.5771 82.1874 60.4931 83.4897 56.9369C84.7921 53.3806 84.9979 49.5155 84.0807 45.841C86.3268 43.6649 87.8461 40.8481 88.4309 37.7759C89.0156 34.7036 88.6373 31.5257 87.3476 28.6765C86.058 25.8274 83.9199 23.4461 81.2256 21.8581C78.5313 20.27 75.4124 19.5528 72.2951 19.8045C72.1019 19.82 71.9137 19.8734 71.7412 19.9616C71.5686 20.0498 71.4152 20.1712 71.2895 20.3188C71.1639 20.4663 71.0686 20.6372 71.009 20.8216C70.9493 21.006 70.9267 21.2003 70.9422 21.3935C70.9577 21.5866 71.011 21.7749 71.0993 21.9474C71.1875 22.1199 71.3089 22.2734 71.4565 22.399C71.604 22.5247 71.7749 22.62 71.9593 22.6796C72.1437 22.7392 72.338 22.7619 72.5312 22.7464C75.1084 22.5398 77.6849 23.1549 79.8908 24.5035C82.0968 25.8521 83.8188 27.8648 84.8099 30.2528C85.8009 32.6408 86.0101 35.2814 85.4072 37.7957C84.8044 40.3099 83.4206 42.5686 81.4545 44.2476C81.2384 44.4351 81.0816 44.6814 81.003 44.9564C80.9244 45.2315 80.9275 45.5234 81.0118 45.7967C82.1332 49.4825 81.8863 53.4492 80.3163 56.9674C78.7464 60.4855 75.9591 63.3187 72.467 64.9457C68.9749 66.5728 65.0127 66.8843 61.3092 65.8232C57.6057 64.762 54.4098 62.3994 52.3092 59.1699C52.0929 58.8455 51.7573 58.6197 51.3754 58.5414C50.9935 58.4631 50.5961 58.5386 50.2696 58.7516C49.943 58.9647 49.7138 59.2979 49.6316 59.679C49.5494 60.0601 49.6208 60.4582 49.8305 60.7869C50.7497 62.1885 51.8489 63.4618 53.1 64.5758C44.8776 70.5866 33.4122 69.2454 26.7979 61.501C26.565 61.2266 26.2398 61.0468 25.8835 60.9954C25.5273 60.9441 25.1646 61.0247 24.8636 61.2222C22.7248 62.6141 20.25 63.4031 17.7002 63.5058C15.1504 63.6085 12.6202 63.0212 10.3763 61.8058C8.13252 60.5903 6.25831 58.7919 4.9514 56.6C3.64449 54.4082 2.95334 51.9044 2.95084 49.3525C2.95807 46.8868 3.60575 44.4654 4.83042 42.3254C6.05509 40.1854 7.81473 38.4003 9.93691 37.1449C12.2378 35.8352 14.8464 35.1632 17.4937 35.1982C20.141 35.2332 22.731 35.974 24.9964 37.3441C25.1659 37.438 25.3523 37.4976 25.5449 37.5194C25.7374 37.5413 25.9324 37.525 26.1186 37.4715C26.3049 37.418 26.4788 37.3283 26.6304 37.2076C26.782 37.0869 26.9084 36.9375 27.0022 36.768C27.0961 36.5984 27.1557 36.4121 27.1775 36.2195C27.1994 36.027 27.1831 35.832 27.1296 35.6457C27.0761 35.4595 26.9864 35.2856 26.8657 35.134C26.745 34.9824 26.5956 34.856 26.4261 34.7622C22.6575 32.5878 18.244 31.8091 13.9589 32.5623C13.9456 32.3159 13.9279 32.0681 13.9279 31.8246C13.93 29.1452 14.6483 26.515 16.0084 24.2064C17.3685 21.8978 19.3209 19.9948 21.6636 18.6943C24.0063 17.3938 26.654 16.7431 29.3326 16.8096C32.0112 16.8761 34.6233 17.6575 36.8985 19.0727C37.0644 19.1778 37.2495 19.2487 37.4431 19.2814C37.6368 19.314 37.835 19.3077 38.0261 19.2628C38.2172 19.2178 38.3975 19.1352 38.5563 19.0197C38.7151 18.9042 38.8492 18.7582 38.9508 18.5902C40.338 16.2879 42.222 14.3247 44.4654 12.8442C46.7087 11.3636 49.2545 10.4031 51.9167 10.0328C52.2978 9.97341 52.6404 9.7672 52.8712 9.45832C53.1021 9.14945 53.2029 8.76246 53.1519 8.38022C53.101 7.99798 52.9025 7.65086 52.5988 7.41318C52.2952 7.17551 51.9105 7.06616 51.5272 7.10856C48.6681 7.50598 45.9216 8.48854 43.4593 9.99491C40.9969 11.5013 38.8715 13.4991 37.2158 15.8636C34.4756 14.4483 31.4175 13.7615 28.3353 13.869C25.253 13.9765 22.2503 14.8748 19.6154 16.4776C16.9805 18.0804 14.802 20.3339 13.2893 23.0215C11.7765 25.7091 10.9803 28.7405 10.9771 31.8246C10.9771 32.3366 11.0081 32.8574 11.0553 33.3723C7.79443 34.5781 4.98399 36.7588 3.00601 39.6179C1.02804 42.477 -0.0215182 45.8759 1.97914e-05 49.3525Z" fill="#36A8DD"/>
<path d="M75.7918 50.4442C75.7891 53.1199 74.725 55.6852 72.833 57.5771C70.941 59.4691 68.3757 60.5333 65.7 60.536C65.3087 60.536 64.9335 60.6914 64.6568 60.9681C64.3801 61.2448 64.2246 61.6201 64.2246 62.0114C64.2246 62.4027 64.3801 62.778 64.6568 63.0547C64.9335 63.3314 65.3087 63.4868 65.7 63.4868C69.158 63.4829 72.4731 62.1075 74.9183 59.6624C77.3634 57.2173 78.7388 53.9021 78.7427 50.4442C78.7427 50.0529 78.5872 49.6776 78.3105 49.4009C78.0338 49.1242 77.6586 48.9688 77.2673 48.9688C76.8759 48.9688 76.5007 49.1242 76.224 49.4009C75.9473 49.6776 75.7918 50.0529 75.7918 50.4442ZM48.6886 15.3442C48.6886 15.7355 48.844 16.1108 49.1207 16.3875C49.3974 16.6642 49.7727 16.8196 50.164 16.8196C60.331 16.8196 60.4918 28.1434 60.4918 28.6229C60.4918 29.0142 60.6473 29.3895 60.924 29.6661C61.2007 29.9428 61.576 30.0983 61.9673 30.0983C62.3586 30.0983 62.7338 29.9428 63.0105 29.6661C63.2872 29.3895 63.4427 29.0142 63.4427 28.6229C63.4427 28.1404 63.6035 16.8196 73.7705 16.8196C74.1618 16.8196 74.5371 16.6642 74.8138 16.3875C75.0905 16.1108 75.2459 15.7355 75.2459 15.3442C75.2459 14.9529 75.0905 14.5776 74.8138 14.3009C74.5371 14.0242 74.1618 13.8688 73.7705 13.8688C63.6035 13.8688 63.4427 2.54501 63.4427 2.0655C63.4427 1.67419 63.2872 1.29892 63.0105 1.02223C62.7338 0.745532 62.3586 0.590088 61.9673 0.590088C61.576 0.590088 61.2007 0.745532 60.924 1.02223C60.6473 1.29892 60.4918 1.67419 60.4918 2.0655C60.4918 2.54796 60.331 13.8688 50.164 13.8688C49.7727 13.8688 49.3974 14.0242 49.1207 14.3009C48.844 14.5776 48.6886 14.9529 48.6886 15.3442ZM61.9673 9.07664C63.0388 11.7279 64.9779 13.9374 67.4676 15.3442C64.9779 16.7509 63.0388 18.9604 61.9673 21.6117C60.8957 18.9604 58.9566 16.7509 56.4669 15.3442C58.9566 13.9374 60.8957 11.7279 61.9673 9.07664ZM38.3607 61.0893V61.0981C38.3629 61.4894 38.5204 61.8638 38.7986 62.139C39.0768 62.4142 39.4529 62.5676 39.8442 62.5654C40.2355 62.5633 40.6099 62.4058 40.8851 62.1275C41.1603 61.8493 41.3137 61.4732 41.3115 61.0819C41.3115 60.7204 41.4355 52.2294 48.6886 52.2294C49.0799 52.2294 49.4551 52.074 49.7318 51.7973C50.0085 51.5206 50.164 51.1453 50.164 50.754C50.164 50.3627 50.0085 49.9874 49.7318 49.7107C49.4551 49.4341 49.0799 49.2786 48.6886 49.2786C41.4355 49.2786 41.3115 40.7847 41.3115 40.4262V40.4173C41.3103 40.026 41.1538 39.6512 40.8762 39.3753C40.5987 39.0995 40.223 38.9451 39.8317 38.9463C39.4404 38.9475 39.0656 39.1041 38.7897 39.3816C38.5138 39.6591 38.3595 40.0348 38.3607 40.4262C38.3607 40.7876 38.2368 49.2786 30.9836 49.2786C30.5923 49.2786 30.2171 49.4341 29.9404 49.7107C29.6637 49.9874 29.5082 50.3627 29.5082 50.754C29.5082 51.1453 29.6637 51.5206 29.9404 51.7973C30.2171 52.074 30.5923 52.2294 30.9836 52.2294C38.2368 52.2294 38.3607 60.7234 38.3607 61.0819V61.0893ZM36.3777 50.754C37.872 49.7579 39.0674 48.3743 39.8361 46.7512C40.6048 48.3743 41.8002 49.7579 43.2945 50.754C41.8005 51.7505 40.6052 53.134 39.8361 54.7568C39.067 53.134 37.8717 51.7505 36.3777 50.754ZM71.0499 35.1752C67.7175 34.1782 64.1529 34.2796 60.8826 35.4643C57.6123 36.649 54.8098 38.8542 52.8891 41.754C52.6719 42.0796 52.5929 42.4781 52.6696 42.8619C52.7462 43.2456 52.9722 43.5832 53.2977 43.8004C53.6233 44.0176 54.0218 44.0965 54.4056 44.0199C54.7894 43.9432 55.127 43.7173 55.3441 43.3917C56.9239 41.0148 59.2266 39.2092 61.9117 38.2418C64.5968 37.2744 67.5219 37.1965 70.2546 38.0198C70.4413 38.0722 70.6364 38.0873 70.8289 38.0642C71.0214 38.0412 71.2074 37.9804 71.3764 37.8854C71.5454 37.7904 71.694 37.6631 71.8138 37.5106C71.9335 37.3582 72.0221 37.1836 72.0743 36.9969C72.1265 36.8102 72.1415 36.6151 72.1183 36.4226C72.0951 36.2301 72.0341 36.0441 71.939 35.8752C71.8439 35.7063 71.7164 35.5578 71.5638 35.4382C71.4113 35.3186 71.2366 35.2302 71.0499 35.1781V35.1752Z" fill="#36A8DD"/>
</svg>
