<svg width="35" height="34" viewBox="0 0 35 34" fill="none" xmlns="http://www.w3.org/2000/svg">
<g clip-path="url(#clip0_58_30)">
<path fill-rule="evenodd" clip-rule="evenodd" d="M17.4997 0.000244141C8.11086 0.000244141 0.499672 7.61143 0.499672 17.0002C0.499672 26.3891 8.11086 34.0002 17.4997 34.0002C26.8885 34.0002 34.4997 26.3891 34.4997 17.0002C34.4997 7.61143 26.8885 0.000244141 17.4997 0.000244141ZM13.762 7.98833C14.7291 7.94434 15.0381 7.93358 17.5005 7.93358H17.4977C19.9608 7.93358 20.2687 7.94434 21.2358 7.98833C22.2011 8.03253 22.8603 8.18539 23.4383 8.40958C24.0352 8.64099 24.5395 8.95074 25.0438 9.45508C25.5483 9.95906 25.858 10.4649 26.0903 11.0612C26.3132 11.6377 26.4662 12.2966 26.5116 13.2618C26.555 14.229 26.5663 14.5379 26.5663 17.0003C26.5663 19.4627 26.555 19.771 26.5116 20.7381C26.4662 21.7029 26.3132 22.362 26.0903 22.9387C25.858 23.5348 25.5483 24.0407 25.0438 24.5446C24.5401 25.049 24.035 25.3595 23.4389 25.5911C22.862 25.8153 22.2024 25.9681 21.2372 26.0123C20.27 26.0564 19.962 26.0671 17.4994 26.0671C15.0372 26.0671 14.7284 26.0564 13.7612 26.0123C12.7962 25.9681 12.1372 25.8153 11.5603 25.5911C10.9643 25.3595 10.4585 25.049 9.95472 24.5446C9.45053 24.0407 9.14077 23.5348 8.90901 22.9385C8.68496 22.362 8.53217 21.7032 8.48776 20.7379C8.44398 19.7708 8.433 19.4627 8.433 17.0003C8.433 14.5379 8.44434 14.2287 8.48762 13.2616C8.53104 12.2968 8.68404 11.6377 8.90879 11.061C9.14113 10.4649 9.45095 9.95906 9.95528 9.45508C10.4593 8.95096 10.9651 8.64113 11.5614 8.40958C12.1379 8.18539 12.7968 8.03253 13.762 7.98833Z" fill="#36A8DD"/>
<path fill-rule="evenodd" clip-rule="evenodd" d="M16.6872 9.56794C16.8451 9.56773 17.015 9.5678 17.1984 9.56787L17.5006 9.56794C19.9214 9.56794 20.2084 9.57665 21.1643 9.62007C22.0483 9.66052 22.5281 9.80821 22.8477 9.93231C23.2708 10.0966 23.5724 10.2931 23.8896 10.6105C24.207 10.9278 24.4034 11.23 24.5681 11.6531C24.6922 11.9724 24.8401 12.4521 24.8804 13.3361C24.9238 14.292 24.9332 14.579 24.9332 16.9987C24.9332 19.4184 24.9238 19.7055 24.8804 20.6614C24.8399 21.5454 24.6922 22.0251 24.5681 22.3444C24.4038 22.7675 24.207 23.0688 23.8896 23.3859C23.5723 23.7032 23.271 23.8997 22.8477 24.0641C22.5285 24.1887 22.0483 24.3361 21.1643 24.3764C20.2085 24.4199 19.9214 24.4293 17.5006 24.4293C15.0796 24.4293 14.7926 24.4199 13.8368 24.3764C12.9528 24.3356 12.4731 24.1879 12.1533 24.0638C11.7302 23.8995 11.4279 23.703 11.1106 23.3857C10.7933 23.0683 10.5968 22.7669 10.4321 22.3436C10.308 22.0244 10.1601 21.5446 10.1198 20.6606C10.0764 19.7048 10.0677 19.4177 10.0677 16.9964C10.0677 14.5753 10.0764 14.2897 10.1198 13.3339C10.1603 12.4499 10.308 11.9701 10.4321 11.6505C10.5964 11.2274 10.7933 10.9252 11.1106 10.6078C11.4279 10.2905 11.7302 10.094 12.1533 9.92933C12.4729 9.80467 12.9528 9.65733 13.8368 9.61667C14.6732 9.57892 14.9974 9.56759 16.6872 9.56567V9.56794ZM22.3404 11.0734C21.7397 11.0734 21.2523 11.5602 21.2523 12.1611C21.2523 12.7617 21.7397 13.2491 22.3404 13.2491C22.941 13.2491 23.4284 12.7617 23.4284 12.1611C23.4284 11.5604 22.941 11.0734 22.3404 11.0734ZM12.8444 17.0008C12.8444 14.4295 14.9291 12.3447 17.5004 12.3447C20.0718 12.3447 22.156 14.4294 22.156 17.0008C22.156 19.5722 20.0719 21.6561 17.5006 21.6561C14.9292 21.6561 12.8444 19.5722 12.8444 17.0008Z" fill="#36A8DD"/>
<path d="M17.5004 13.978C19.1695 13.978 20.5227 15.3311 20.5227 17.0003C20.5227 18.6693 19.1695 20.0225 17.5004 20.0225C15.8312 20.0225 14.4782 18.6693 14.4782 17.0003C14.4782 15.3311 15.8312 13.978 17.5004 13.978Z" fill="#36A8DD"/>
</g>
<defs>
<clipPath id="clip0_58_30">
<rect width="34" height="34" fill="white" transform="translate(0.5)"/>
</clipPath>
</defs>
</svg>
