<svg width="34" height="34" viewBox="0 0 34 34" fill="none" xmlns="http://www.w3.org/2000/svg">
<g clip-path="url(#clip0_195_2393)">
<path fill-rule="evenodd" clip-rule="evenodd" d="M16.9998 0.000488281C7.61094 0.000488281 -0.000244141 7.61167 -0.000244141 17.0005C-0.000244141 26.3893 7.61094 34.0005 16.9998 34.0005C26.3886 34.0005 33.9998 26.3893 33.9998 17.0005C33.9998 7.61167 26.3886 0.000488281 16.9998 0.000488281ZM13.2621 7.98858C14.2292 7.94459 14.5382 7.93382 17.0006 7.93382H16.9978C19.4609 7.93382 19.7688 7.94459 20.7359 7.98858C21.7012 8.03278 22.3603 8.18563 22.9384 8.40982C23.5353 8.64123 24.0396 8.95099 24.5439 9.45532C25.0483 9.9593 25.3581 10.4651 25.5904 11.0615C25.8133 11.638 25.9663 12.2968 26.0117 13.262C26.0551 14.2292 26.0664 14.5382 26.0664 17.0006C26.0664 19.4629 26.0551 19.7712 26.0117 20.7384C25.9663 21.7032 25.8133 22.3622 25.5904 22.9389C25.3581 23.5351 25.0483 24.0409 24.5439 24.5449C24.0402 25.0492 23.5351 25.3597 22.939 25.5914C22.3621 25.8156 21.7025 25.9683 20.7373 26.0125C19.7701 26.0566 19.4621 26.0674 16.9995 26.0674C14.5373 26.0674 14.2285 26.0566 13.2613 26.0125C12.2963 25.9683 11.6372 25.8156 11.0604 25.5914C10.4644 25.3597 9.95857 25.0492 9.4548 24.5449C8.95061 24.0409 8.64086 23.5351 8.40909 22.9387C8.18504 22.3622 8.03226 21.7034 7.98784 20.7381C7.94407 19.7711 7.93309 19.4629 7.93309 17.0006C7.93309 14.5382 7.94442 14.229 7.9877 13.2618C8.03112 12.297 8.18412 11.638 8.40888 11.0613C8.64121 10.4651 8.95103 9.9593 9.45537 9.45532C9.95935 8.9512 10.4652 8.64138 11.0615 8.40982C11.638 8.18563 12.2968 8.03278 13.2621 7.98858Z" fill="white"/>
<path fill-rule="evenodd" clip-rule="evenodd" d="M16.1871 9.5677C16.345 9.56748 16.515 9.56755 16.6983 9.56763L17.0005 9.5677C19.4213 9.5677 19.7083 9.57641 20.6642 9.61983C21.5482 9.66028 22.028 9.80796 22.3476 9.93206C22.7707 10.0964 23.0724 10.2929 23.3895 10.6102C23.7069 10.9276 23.9033 11.2298 24.0681 11.6529C24.1922 11.9721 24.3401 12.4519 24.3803 13.3359C24.4237 14.2917 24.4331 14.5788 24.4331 16.9985C24.4331 19.4182 24.4237 19.7053 24.3803 20.6611C24.3398 21.5451 24.1922 22.0249 24.0681 22.3441C23.9037 22.7672 23.7069 23.0685 23.3895 23.3857C23.0722 23.703 22.7709 23.8995 22.3476 24.0638C22.0284 24.1885 21.5482 24.3358 20.6642 24.3762C19.7084 24.4197 19.4213 24.4291 17.0005 24.4291C14.5795 24.4291 14.2926 24.4197 13.3367 24.3762C12.4527 24.3354 11.973 24.1877 11.6532 24.0636C11.2301 23.8993 10.9278 23.7028 10.6105 23.3854C10.2932 23.0681 10.0968 22.7666 9.93199 22.3433C9.80789 22.0242 9.65999 21.5443 9.61976 20.6603C9.57634 19.7046 9.56763 19.4174 9.56763 16.9962C9.56763 14.575 9.57634 14.2894 9.61976 13.3336C9.66021 12.4496 9.80789 11.9699 9.93199 11.6503C10.0963 11.2271 10.2932 10.9249 10.6105 10.6076C10.9278 10.2903 11.2301 10.0938 11.6532 9.92909C11.9728 9.80442 12.4527 9.65709 13.3367 9.61643C14.1731 9.57868 14.4973 9.56734 16.1871 9.56543V9.5677ZM21.8403 11.0732C21.2396 11.0732 20.7522 11.56 20.7522 12.1608C20.7522 12.7615 21.2396 13.2488 21.8403 13.2488C22.4409 13.2488 22.9283 12.7615 22.9283 12.1608C22.9283 11.5602 22.4409 11.0732 21.8403 11.0732ZM12.3444 17.0006C12.3444 14.4293 14.429 12.3445 17.0003 12.3444C19.5717 12.3444 21.6559 14.4292 21.6559 17.0006C21.6559 19.572 19.5718 21.6558 17.0005 21.6558C14.4291 21.6558 12.3444 19.572 12.3444 17.0006Z" fill="white"/>
<path d="M17.0005 13.978C18.6696 13.978 20.0228 15.3311 20.0228 17.0003C20.0228 18.6693 18.6696 20.0225 17.0005 20.0225C15.3313 20.0225 13.9783 18.6693 13.9783 17.0003C13.9783 15.3311 15.3313 13.978 17.0005 13.978Z" fill="white"/>
</g>
<defs>
<clipPath id="clip0_195_2393">
<rect width="34" height="34" fill="white"/>
</clipPath>
</defs>
</svg>
