<svg width="34.000000" height="34.000000" viewBox="0 0 34 34" fill="none" xmlns="http://www.w3.org/2000/svg" xmlns:xlink="http://www.w3.org/1999/xlink">
	<desc>
			Created with Pixso.
	</desc>
	<defs/>
	<path id="Vector" d="M0 17C0 26.38 7.61 34 17 34C26.38 34 34 26.38 34 17C34 7.61 26.38 0 17 0C7.61 0 0 7.61 0 17ZM13.88 24.79L14.17 20.45L22.05 13.34C22.4 13.03 21.97 12.88 21.52 13.16L11.79 19.3L7.58 17.99C6.68 17.71 6.67 17.09 7.79 16.64L24.16 10.32C24.91 9.98 25.63 10.5 25.35 11.65L22.56 24.79C22.36 25.72 21.8 25.95 21.02 25.51L16.77 22.38L14.73 24.36C14.72 24.37 14.72 24.37 14.71 24.38C14.48 24.6 14.29 24.79 13.88 24.79Z" fill="#36A8DD" fill-opacity="1.000000" fill-rule="evenodd"/>
</svg>
