<svg width="34" height="34" viewBox="0 0 34 34" fill="none" xmlns="http://www.w3.org/2000/svg">
<g clip-path="url(#clip0_299_749)">
<path fill-rule="evenodd" clip-rule="evenodd" d="M0 17C0 26.3888 7.61118 34 17 34C26.3888 34 34 26.3888 34 17C34 7.61118 26.3888 0 17 0C7.61118 0 0 7.61118 0 17ZM13.8833 24.7917L14.1725 20.4583L22.0553 13.3443C22.4013 13.0372 21.9798 12.8875 21.5205 13.166L11.7918 19.3037L7.58958 17.9922C6.68206 17.7143 6.67555 17.0907 7.7933 16.6424L24.1685 10.3281C24.9165 9.98856 25.6383 10.5078 25.3528 11.6524L22.5641 24.7939C22.3694 25.7277 21.8051 25.9511 21.0233 25.5197L16.7752 22.3811L14.7333 24.3667C14.7269 24.3729 14.7205 24.3791 14.7141 24.3854C14.4858 24.6077 14.2968 24.7917 13.8833 24.7917Z" fill="white"/>
</g>
<defs>
<clipPath id="clip0_299_749">
<rect width="34" height="34" fill="white"/>
</clipPath>
</defs>
</svg>
