<svg width="34.000000" height="34.000000" viewBox="0 0 34 34" fill="none" xmlns="http://www.w3.org/2000/svg" xmlns:xlink="http://www.w3.org/1999/xlink">
	<desc>
			Created with Pixso.
	</desc>
	<defs/>
	<path id="Vector" d="M17 0C7.61 0 0 7.61 0 17C0 26.38 7.61 34 17 34C26.38 34 34 26.38 34 17C34 7.61 26.38 0 17 0ZM18.38 22.36C18.21 22.54 17.88 22.57 17.88 22.57L16.8 22.57C16.8 22.57 14.41 22.72 12.3 20.56C10.01 18.21 7.98 13.56 7.98 13.56C7.98 13.56 7.86 13.25 7.99 13.1C8.13 12.94 8.52 12.93 8.52 12.93L11.11 12.91C11.11 12.91 11.35 12.95 11.53 13.08C11.67 13.18 11.75 13.37 11.75 13.37C11.75 13.37 12.17 14.41 12.73 15.35C13.81 17.19 14.31 17.59 14.68 17.39C15.22 17.11 15.06 14.8 15.06 14.8C15.06 14.8 15.07 13.96 14.79 13.59C14.57 13.3 14.16 13.22 13.98 13.19C13.84 13.17 14.08 12.84 14.39 12.69C14.85 12.47 15.68 12.45 16.65 12.46C17.41 12.47 17.62 12.52 17.92 12.59C18.61 12.75 18.59 13.27 18.54 14.4C18.53 14.74 18.51 15.13 18.51 15.58C18.51 15.68 18.51 15.79 18.5 15.9C18.49 16.48 18.47 17.14 18.86 17.38C19.06 17.51 19.54 17.4 20.76 15.38C21.33 14.42 21.76 13.29 21.76 13.29C21.76 13.29 21.86 13.09 22 13C22.15 12.92 22.36 12.94 22.36 12.94L25.08 12.93C25.08 12.93 25.9 12.83 26.03 13.19C26.17 13.57 25.73 14.46 24.61 15.92C23.56 17.3 23.04 17.81 23.09 18.26C23.12 18.59 23.46 18.89 24.1 19.47C25.44 20.7 25.8 21.34 25.88 21.49C25.89 21.5 25.9 21.51 25.9 21.52C26.5 22.5 25.23 22.57 25.23 22.57L22.81 22.61C22.81 22.61 22.29 22.71 21.61 22.25C21.25 22.01 20.9 21.61 20.56 21.24C20.05 20.66 19.58 20.13 19.18 20.26C18.51 20.47 18.53 21.89 18.53 21.89C18.53 21.89 18.53 22.2 18.38 22.36Z" fill="#36A8DD" fill-opacity="1.000000" fill-rule="evenodd"/>
</svg>
