<svg width="65.000000" height="54.000000" viewBox="0 0 65 54" fill="none" xmlns="http://www.w3.org/2000/svg" xmlns:xlink="http://www.w3.org/1999/xlink">
	<desc>
			Created with Pixso.
	</desc>
	<defs/>
	<path id="Vector 6" d="M20.51 53.7Q10.59 53.84 0.61 51.16C-0.2 50.94 -0.67 50.13 -0.45 49.32C-0.24 48.51 0.57 48.04 1.38 48.26Q10.97 50.83 20.47 50.7Q31.78 50.54 39.56 46.4Q44.22 43.92 47.34 40.16Q56.95 28.6 52.01 4.94L47.71 12.03C47.28 12.75 46.37 12.98 45.65 12.54C44.93 12.1 44.71 11.2 45.15 10.48L51.36 0.22C51.8 -0.5 52.71 -0.72 53.42 -0.29L63.69 5.93C64.41 6.37 64.63 7.27 64.19 7.99C63.76 8.71 62.85 8.93 62.13 8.5L54.9 4.11Q60.16 29 50.07 41.63Q46.49 46.11 40.97 49.05Q32.55 53.53 20.51 53.7Z" fill="#36A8DD" fill-opacity="1.000000" fill-rule="evenodd"/>
</svg>
