<svg width="77.000000" height="30.000000" viewBox="0 0 77 30" fill="none" xmlns="http://www.w3.org/2000/svg" xmlns:xlink="http://www.w3.org/1999/xlink">
	<desc>
			Created with Pixso.
	</desc>
	<defs/>
	<path id="Vector 7" d="M12.45 11.21Q5.15 17.91 -0.28 26.71C-0.72 27.43 -0.51 28.33 0.21 28.78C0.92 29.22 1.83 29 2.27 28.29Q7.48 19.84 14.48 13.42Q22.82 5.77 31.32 3.45Q36.41 2.05 41.26 2.65Q56.18 4.47 68.82 25.06L60.83 22.85C60.02 22.63 59.21 23.09 58.98 23.9C58.76 24.71 59.22 25.52 60.03 25.75L71.6 28.94C72.4 29.17 73.22 28.71 73.44 27.9L76.64 16.33C76.86 15.52 76.4 14.71 75.59 14.49C74.78 14.26 73.97 14.72 73.75 15.53L71.49 23.69Q58.25 1.98 42.24 -0.29Q36.56 -1.1 30.52 0.55Q21.33 3.06 12.45 11.21Z" fill="#36A8DD" fill-opacity="1.000000" fill-rule="evenodd"/>
</svg>
