<svg width="67" height="67" viewBox="0 0 67 67" fill="none" xmlns="http://www.w3.org/2000/svg">
<circle cx="33.5" cy="33.5" r="33.5" fill="#36A8DD"/>
<path d="M33.205 30.985C36.6583 30.985 39.2133 31.6617 40.87 33.015C42.5267 34.345 43.355 36.165 43.355 38.475C43.355 39.945 42.9933 41.275 42.27 42.465C41.5467 43.655 40.4617 44.6 39.015 45.3C37.5683 46 35.7833 46.35 33.66 46.35C31.91 46.35 30.2183 46.105 28.585 45.615C26.9517 45.1017 25.575 44.4017 24.455 43.515L26.38 39.98C27.29 40.7267 28.375 41.3217 29.635 41.765C30.9183 42.185 32.2367 42.395 33.59 42.395C35.2 42.395 36.46 42.0683 37.37 41.415C38.3033 40.7383 38.77 39.8167 38.77 38.65C38.77 37.39 38.2683 36.445 37.265 35.815C36.285 35.1617 34.5933 34.835 32.19 34.835H26.275L27.535 21.5H41.92V25.315H31.385L30.86 30.985H33.205Z" fill="white"/>
</svg>
