<svg width="67" height="67" viewBox="0 0 67 67" fill="none" xmlns="http://www.w3.org/2000/svg">
<circle cx="33.5" cy="33.5" r="33.5" fill="#36A8DD"/>
<path d="M43.285 42.15V46H25.225V42.955L34.955 33.715C36.0517 32.665 36.7867 31.755 37.16 30.985C37.5567 30.1917 37.755 29.41 37.755 28.64C37.755 27.4967 37.37 26.6217 36.6 26.015C35.83 25.4083 34.6983 25.105 33.205 25.105C30.7083 25.105 28.795 25.9567 27.465 27.66L24.28 25.21C25.2367 23.9267 26.52 22.935 28.13 22.235C29.7633 21.5117 31.5833 21.15 33.59 21.15C36.25 21.15 38.3733 21.78 39.96 23.04C41.5467 24.3 42.34 26.015 42.34 28.185C42.34 29.515 42.06 30.7633 41.5 31.93C40.94 33.0967 39.8667 34.4267 38.28 35.92L31.735 42.15H43.285Z" fill="white"/>
</svg>
