<svg width="67" height="67" viewBox="0 0 67 67" fill="none" xmlns="http://www.w3.org/2000/svg">
<circle cx="33.5" cy="33.5" r="33.5" fill="#36A8DD"/>
<path d="M33.67 30.88C35.28 30.88 36.7267 31.195 38.01 31.825C39.2933 32.4317 40.2967 33.3067 41.02 34.45C41.7433 35.5933 42.105 36.9117 42.105 38.405C42.105 39.9917 41.7083 41.3917 40.915 42.605C40.1217 43.795 39.0483 44.7167 37.695 45.37C36.3417 46.0233 34.825 46.35 33.145 46.35C29.785 46.35 27.1717 45.3 25.305 43.2C23.4617 41.1 22.54 38.09 22.54 34.17C22.54 31.4167 23.0417 29.0717 24.045 27.135C25.0483 25.175 26.4483 23.6933 28.245 22.69C30.065 21.6633 32.165 21.15 34.545 21.15C35.805 21.15 36.9833 21.29 38.08 21.57C39.2 21.8267 40.1683 22.2117 40.985 22.725L39.305 26.155C38.0917 25.3617 36.54 24.965 34.65 24.965C32.2933 24.965 30.45 25.6883 29.12 27.135C27.79 28.5817 27.125 30.67 27.125 33.4V33.435C27.8483 32.595 28.77 31.965 29.89 31.545C31.01 31.1017 32.27 30.88 33.67 30.88ZM32.9 42.78C34.3233 42.78 35.4783 42.4067 36.365 41.66C37.2517 40.89 37.695 39.875 37.695 38.615C37.695 37.3317 37.2517 36.3167 36.365 35.57C35.4783 34.8233 34.2883 34.45 32.795 34.45C31.325 34.45 30.1233 34.8467 29.19 35.64C28.28 36.4333 27.825 37.4367 27.825 38.65C27.825 39.84 28.2683 40.8317 29.155 41.625C30.065 42.395 31.3133 42.78 32.9 42.78Z" fill="white"/>
</svg>
