<svg width="67" height="67" viewBox="0 0 67 67" fill="none" xmlns="http://www.w3.org/2000/svg">
<circle cx="33.5" cy="33.5" r="33.5" fill="#36A8DD"/>
<path d="M35.97 31.615C38.2333 31.895 39.96 32.665 41.15 33.925C42.34 35.185 42.935 36.76 42.935 38.65C42.935 40.0733 42.5733 41.3683 41.85 42.535C41.1267 43.7017 40.03 44.635 38.56 45.335C37.1133 46.0117 35.34 46.35 33.24 46.35C31.49 46.35 29.7983 46.105 28.165 45.615C26.555 45.1017 25.1783 44.4017 24.035 43.515L25.995 39.98C26.8817 40.7267 27.955 41.3217 29.215 41.765C30.4983 42.185 31.8167 42.395 33.17 42.395C34.78 42.395 36.04 42.0683 36.95 41.415C37.8833 40.7383 38.35 39.8283 38.35 38.685C38.35 37.5417 37.9067 36.655 37.02 36.025C36.1567 35.3717 34.8267 35.045 33.03 35.045H30.79V31.93L36.355 25.315H25.225V21.5H41.92V24.545L35.97 31.615Z" fill="white"/>
</svg>
