<?xml version="1.0" standalone="no"?>
<!DOCTYPE svg PUBLIC "-//W3C//DTD SVG 20010904//EN"
 "http://www.w3.org/TR/2001/REC-SVG-20010904/DTD/svg10.dtd">
<svg version="1.0" xmlns="http://www.w3.org/2000/svg"
 width="512.000000pt" height="512.000000pt" viewBox="0 0 512.000000 512.000000"
 preserveAspectRatio="xMidYMid meet">

<g transform="translate(0.000000,512.000000) scale(0.100000,-0.100000)"
fill="#000000" stroke="none">
<path d="M2425 5110 c-11 -4 -30 -18 -42 -31 -11 -13 -308 -625 -658 -1359
-681 -1427 -661 -1381 -619 -1444 36 -57 31 -56 562 -56 l489 0 -344 -1041
c-282 -849 -344 -1047 -339 -1074 9 -44 57 -92 102 -101 85 -16 8 -110 1280
1563 1264 1664 1199 1572 1164 1651 -31 68 -21 66 -566 72 l-491 5 473 825
c261 454 477 840 480 859 9 44 -16 95 -58 121 -32 19 -51 20 -723 19 -379 0
-699 -4 -710 -9z m1152 -237 c-2 -5 -216 -380 -476 -834 -259 -455 -474 -840
-477 -856 -8 -39 17 -97 52 -120 26 -17 65 -18 506 -23 l479 -5 -842 -1110
c-462 -610 -845 -1114 -850 -1120 -5 -5 -3 11 5 35 8 25 121 367 251 761 137
418 235 732 235 754 0 42 -22 85 -54 106 -17 11 -107 15 -504 17 -452 3 -483
4 -478 20 4 9 257 549 564 1199 l557 1182 518 1 c285 0 516 -3 514 -7z"/>
</g>
</svg>
