<svg width="0" height="0" class="hidden">
    <symbol xmlns="http://www.w3.org/2000/svg" width="25" height="7" viewBox="0 0 25 7" id="svg-logo">
    <circle cx="3.22848" cy="3.22848" r="3.22848" />
    <circle cx="12.5" cy="3.22848" r="3.22848" />
    <circle cx="21.7714" cy="3.22848" r="3.22848" />
    </symbol>
    <symbol version="1.1" xmlns="http://www.w3.org/2000/svg" xmlns:xlink="http://www.w3.org/1999/xlink" x="0px" y="0px" viewBox="0 0 512 512" style="enable-background:new 0 0 512 512;" xml:space="preserve" id="svg-time">
		<path d="M256,0C114.845,0,0,114.839,0,256s114.845,256,256,256c141.161,0,256-114.839,256-256S397.155,0,256,0z M256,474.628
			C135.45,474.628,37.372,376.55,37.372,256S135.45,37.372,256,37.372s218.628,98.077,218.628,218.622
			C474.628,376.55,376.55,474.628,256,474.628z"/>
		<path d="M343.202,256h-80.973V143.883c0-10.321-8.365-18.686-18.686-18.686s-18.686,8.365-18.686,18.686v130.803
			c0,10.321,8.365,18.686,18.686,18.686h99.659c10.321,0,18.686-8.365,18.686-18.686S353.523,256,343.202,256z"/>
    </symbol>
    <symbol  enable-background="new 0 0 24 24" height="512" viewBox="0 0 24 24" width="512"
        xmlns="http://www.w3.org/2000/svg" id="svg-size">
        <path
            d="m4.5 3c-.128 0-.256-.049-.354-.146l-1.646-1.647-1.646 1.647c-.195.195-.512.195-.707 0s-.195-.512 0-.707l2-2c.195-.195.512-.195.707 0l2 2c.195.195.195.512 0 .707-.098.097-.226.146-.354.146z" />
        <path
            d="m21.5 24c-.128 0-.256-.049-.354-.146-.195-.195-.195-.512 0-.707l1.646-1.646-1.646-1.646c-.195-.195-.195-.512 0-.707s.512-.195.707 0l2 2c.195.195.195.512 0 .707l-2 2c-.097.096-.225.145-.353.145z" />
        <path d="m2.5 24c-.276 0-.5-.224-.5-.5v-22.75c0-.276.224-.5.5-.5s.5.224.5.5v22.75c0 .276-.224.5-.5.5z" />
        <path d="m23.25 22h-22.75c-.276 0-.5-.224-.5-.5s.224-.5.5-.5h22.75c.276 0 .5.224.5.5s-.224.5-.5.5z" />
        <path
            d="m13 10c-.061 0-.122-.011-.18-.033l-6.5-2.5c-.193-.074-.32-.26-.32-.467s.127-.393.32-.467l6.5-2.5c.115-.044.244-.044.359 0l6.5 2.5c.194.074.321.26.321.467s-.127.393-.32.467l-6.5 2.5c-.058.022-.119.033-.18.033zm-5.107-3 5.107 1.964 5.107-1.964-5.107-1.964z" />
        <path
            d="m13 18c-.061 0-.122-.011-.18-.033l-6.5-2.5c-.193-.074-.32-.26-.32-.467v-8c0-.276.224-.5.5-.5s.5.224.5.5v7.657l6 2.308 6-2.308v-7.657c0-.276.224-.5.5-.5s.5.224.5.5v8c0 .207-.127.393-.32.467l-6.5 2.5c-.058.022-.119.033-.18.033z" />
        <path d="m13 18c-.276 0-.5-.224-.5-.5v-8c0-.276.224-.5.5-.5s.5.224.5.5v8c0 .276-.224.5-.5.5z" />
    </symbol>
    <symbol enable-background="new 0 0 512 512"  version="1.1" viewBox="0 0 512 512" xml:space="preserve" xmlns="http://www.w3.org/2000/svg" xmlns:xlink="http://www.w3.org/1999/xlink" id="svg-inst">
        <g>
            <path
                d="M505,257c0,34.8-0.7,69.7,0.2,104.5c1.5,61.6-37.2,109.2-86.5,130.4c-19.8,8.5-40.6,13-62.1,13c-67.3,0.1-134.7,1-202-0.3   c-50.7-1-92.4-22.2-122.3-64c-15.7-22-23.2-47-23.2-74.1c0-71.7,0-143.3,0-215c0-58.5,28.5-99.4,79.1-126C110.2,14,134.1,9.1,159,9   c65.3,0,130.7-0.4,196,0.2c50.7,0.4,93,19.8,124.2,60.6c17.4,22.8,25.8,49,25.8,77.8C505,184,505,220.5,505,257z M46,257   c0,36.7,0,73.3,0,110c0,16.4,3.8,31.8,12.3,45.7c22.3,36.5,56,54.3,97.8,55c67.1,1,134.3,0.4,201.5,0.2c16.5,0,32.5-3.4,47.4-10.5   c40.6-19.4,63.3-50.3,63.1-96.7c-0.4-71-0.1-142-0.1-213c0-20.1-5.7-38.5-17.6-54.7c-23-31.1-54.8-46.4-92.8-46.8   c-67-0.8-134-0.3-201-0.2c-14.3,0-28.1,2.9-41.5,7.9c-36.8,13.7-71,48.4-69.4,99.5C46.9,188,46,222.5,46,257z" />
            <path
                d="M257.6,363c-64.5,0-116.5-51.4-116.6-115.4c-0.1-63,52.3-114.6,116.4-114.6c64.3-0.1,116.5,51.4,116.6,114.9   C374,311.3,321.9,362.9,257.6,363z M257.6,326c43.9,0,79.5-35.1,79.4-78.3c-0.1-42.8-35.7-77.8-79.4-77.8   c-43.9,0-79.7,34.9-79.7,78C178,291.1,213.7,326.1,257.6,326z" />
            <path
                d="M387.5,98c13.5,0,24.5,11.5,24.5,25.6c-0.1,14.1-11.2,25.5-24.7,25.4c-13.3-0.1-24.2-11.5-24.2-25.3   C363,109.6,374,98,387.5,98z" />
        </g>
    </symbol>
    <symbol viewBox="0 0 512 512" xmlns="http://www.w3.org/2000/svg" id="svg-whatsapp">
        <path
            d="m439.277344 72.722656c-46.898438-46.898437-109.238282-72.722656-175.566406-72.722656-.003907 0-.019532 0-.023438 0-32.804688.00390625-64.773438 6.355469-95.011719 18.882812-30.242187 12.527344-57.335937 30.640626-80.535156 53.839844-46.894531 46.894532-72.71875 109.246094-72.71875 175.566406 0 39.550782 9.542969 78.855469 27.625 113.875l-41.734375 119.226563c-2.941406 8.410156-.859375 17.550781 5.445312 23.851563 4.410157 4.414062 10.214844 6.757812 16.183594 6.757812 2.558594 0 5.144532-.429688 7.667969-1.3125l119.226563-41.730469c35.019531 18.082031 74.324218 27.625 113.875 27.625 66.320312 0 128.667968-25.828125 175.566406-72.722656 46.894531-46.894531 72.722656-109.246094 72.722656-175.566406 0-66.324219-25.824219-128.675781-72.722656-175.570313zm-21.234375 329.902344c-41.222657 41.226562-96.035157 63.925781-154.332031 63.925781-35.664063 0-71.09375-8.820312-102.460938-25.515625-5.6875-3.023437-12.410156-3.542968-18.445312-1.429687l-108.320313 37.910156 37.914063-108.320313c2.113281-6.042968 1.589843-12.765624-1.433594-18.449218-16.691406-31.359375-25.515625-66.789063-25.515625-102.457032 0-58.296874 22.703125-113.109374 63.925781-154.332031 41.21875-41.21875 96.023438-63.921875 154.316406-63.929687h.019532c58.300781 0 113.109374 22.703125 154.332031 63.929687 41.226562 41.222657 63.929687 96.03125 63.929687 154.332031 0 58.300782-22.703125 113.113282-63.929687 154.335938zm0 0" />
        <path
            d="m355.984375 270.46875c-11.421875-11.421875-30.007813-11.421875-41.429687 0l-12.492188 12.492188c-31.019531-16.902344-56.121094-42.003907-73.027344-73.023438l12.492188-12.492188c11.425781-11.421874 11.425781-30.007812 0-41.429687l-33.664063-33.664063c-11.421875-11.421874-30.007812-11.421874-41.429687 0l-26.929688 26.929688c-15.425781 15.425781-16.195312 41.945312-2.167968 74.675781 12.179687 28.417969 34.46875 59.652344 62.761718 87.945313 28.292969 28.292968 59.527344 50.582031 87.945313 62.761718 15.550781 6.664063 29.695312 9.988282 41.917969 9.988282 13.503906 0 24.660156-4.058594 32.757812-12.15625l26.929688-26.933594v.003906c5.535156-5.535156 8.582031-12.890625 8.582031-20.714844 0-7.828124-3.046875-15.183593-8.582031-20.714843zm-14.5 80.792969c-4.402344 4.402343-17.941406 5.945312-41.609375-4.195313-24.992188-10.710937-52.886719-30.742187-78.542969-56.398437s-45.683593-53.546875-56.394531-78.539063c-10.144531-23.667968-8.601562-37.210937-4.199219-41.613281l26.414063-26.414063 32.625 32.628907-15.636719 15.640625c-7.070313 7.070312-8.777344 17.792968-4.242187 26.683594 20.558593 40.3125 52.734374 72.488281 93.046874 93.046874 8.894532 4.535157 19.617188 2.832032 26.6875-4.242187l15.636719-15.636719 32.628907 32.628906zm0 0" />
    </symbol>
</svg>